<svg width="1117" height="663" xmlns="http://www.w3.org/2000/svg" xmlns:xlink="http://www.w3.org/1999/xlink" xml:space="preserve" overflow="hidden"><g transform="translate(-1481 -1804)"><path d="M1750.5 2089.17C1750.5 2081.07 1757.07 2074.5 1765.17 2074.5L1907.83 2074.5C1915.93 2074.5 1922.5 2081.07 1922.5 2089.17L1922.5 2147.83C1922.5 2155.93 1915.93 2162.5 1907.83 2162.5L1765.17 2162.5C1757.07 2162.5 1750.5 2155.93 1750.5 2147.83Z" stroke="#000000" stroke-width="6.875" stroke-miterlimit="8" fill="#8FCCFF" fill-rule="evenodd"/><path d="M1920.5 2089.17C1920.5 2081.07 1927.07 2074.5 1935.17 2074.5L2076.83 2074.5C2084.93 2074.5 2091.5 2081.07 2091.5 2089.17L2091.5 2147.83C2091.5 2155.93 2084.93 2162.5 2076.83 2162.5L1935.17 2162.5C1927.07 2162.5 1920.5 2155.93 1920.5 2147.83Z" stroke="#000000" stroke-width="6.875" stroke-miterlimit="8" fill="#8FCCFF" fill-rule="evenodd"/><path d="M2093.5 2089.17C2093.5 2081.07 2100.07 2074.5 2108.17 2074.5L2249.83 2074.5C2257.93 2074.5 2264.5 2081.07 2264.5 2089.17L2264.5 2147.83C2264.5 2155.93 2257.93 2162.5 2249.83 2162.5L2108.17 2162.5C2100.07 2162.5 2093.5 2155.93 2093.5 2147.83Z" stroke="#000000" stroke-width="6.875" stroke-miterlimit="8" fill="#8FCCFF" fill-rule="evenodd"/><path d="M2264.5 2089.33C2264.5 2081.14 2271.14 2074.5 2279.33 2074.5L2420.67 2074.5C2428.86 2074.5 2435.5 2081.14 2435.5 2089.33L2435.5 2148.67C2435.5 2156.86 2428.86 2163.5 2420.67 2163.5L2279.33 2163.5C2271.14 2163.5 2264.5 2156.86 2264.5 2148.67Z" stroke="#000000" stroke-width="6.875" stroke-miterlimit="8" fill="#8FCCFF" fill-rule="evenodd"/><path d="M1750.5 1832.33C1750.5 1824.14 1757.14 1817.5 1765.33 1817.5L1907.67 1817.5C1915.86 1817.5 1922.5 1824.14 1922.5 1832.33L1922.5 1891.67C1922.5 1899.86 1915.86 1906.5 1907.67 1906.5L1765.33 1906.5C1757.14 1906.5 1750.5 1899.86 1750.5 1891.67Z" stroke="#000000" stroke-width="6.875" stroke-miterlimit="8" fill="#FEFFBF" fill-rule="evenodd"/><path d="M1921.5 1832.33C1921.5 1824.14 1928.14 1817.5 1936.33 1817.5L2077.67 1817.5C2085.86 1817.5 2092.5 1824.14 2092.5 1832.33L2092.5 1891.67C2092.5 1899.86 2085.86 1906.5 2077.67 1906.5L1936.33 1906.5C1928.14 1906.5 1921.5 1899.86 1921.5 1891.67Z" stroke="#000000" stroke-width="6.875" stroke-miterlimit="8" fill="#FEFFBF" fill-rule="evenodd"/><path d="M2090.5 1832.33C2090.5 1824.14 2097.14 1817.5 2105.33 1817.5L2247.67 1817.5C2255.86 1817.5 2262.5 1824.14 2262.5 1832.33L2262.5 1891.67C2262.5 1899.86 2255.86 1906.5 2247.67 1906.5L2105.33 1906.5C2097.14 1906.5 2090.5 1899.86 2090.5 1891.67Z" stroke="#000000" stroke-width="6.875" stroke-miterlimit="8" fill="#FEFFBF" fill-rule="evenodd"/><path d="M2261.5 1832.33C2261.5 1824.14 2268.14 1817.5 2276.33 1817.5L2417.67 1817.5C2425.86 1817.5 2432.5 1824.14 2432.5 1832.33L2432.5 1891.67C2432.5 1899.86 2425.86 1906.5 2417.67 1906.5L2276.33 1906.5C2268.14 1906.5 2261.5 1899.86 2261.5 1891.67Z" stroke="#000000" stroke-width="6.875" stroke-miterlimit="8" fill="#FEFFBF" fill-rule="evenodd"/><path d="M1750.5 2345.33C1750.5 2337.14 1757.14 2330.5 1765.33 2330.5L1907.67 2330.5C1915.86 2330.5 1922.5 2337.14 1922.5 2345.33L1922.5 2404.67C1922.5 2412.86 1915.86 2419.5 1907.67 2419.5L1765.33 2419.5C1757.14 2419.5 1750.5 2412.86 1750.5 2404.67Z" stroke="#000000" stroke-width="6.875" stroke-miterlimit="8" fill="#FEB7B6" fill-rule="evenodd"/><path d="M1920.5 2345.33C1920.5 2337.14 1927.14 2330.5 1935.33 2330.5L2076.67 2330.5C2084.86 2330.5 2091.5 2337.14 2091.5 2345.33L2091.5 2404.67C2091.5 2412.86 2084.86 2419.5 2076.67 2419.5L1935.33 2419.5C1927.14 2419.5 1920.5 2412.86 1920.5 2404.67Z" stroke="#000000" stroke-width="6.875" stroke-miterlimit="8" fill="#FEB7B6" fill-rule="evenodd"/><path d="M2090.5 2345.33C2090.5 2337.14 2097.14 2330.5 2105.33 2330.5L2247.67 2330.5C2255.86 2330.5 2262.5 2337.14 2262.5 2345.33L2262.5 2404.67C2262.5 2412.86 2255.86 2419.5 2247.67 2419.5L2105.33 2419.5C2097.14 2419.5 2090.5 2412.86 2090.5 2404.67Z" stroke="#000000" stroke-width="6.875" stroke-miterlimit="8" fill="#FEB7B6" fill-rule="evenodd"/><path d="M2262.5 2345.33C2262.5 2337.14 2269.14 2330.5 2277.33 2330.5L2419.67 2330.5C2427.86 2330.5 2434.5 2337.14 2434.5 2345.33L2434.5 2404.67C2434.5 2412.86 2427.86 2419.5 2419.67 2419.5L2277.33 2419.5C2269.14 2419.5 2262.5 2412.86 2262.5 2404.67Z" stroke="#000000" stroke-width="6.875" stroke-miterlimit="8" fill="#FEB7B6" fill-rule="evenodd"/><path d="M1839.94 1913.31 1839.94 2067.4 1833.06 2067.4 1833.06 1913.31ZM1817.49 1939.07 1836.5 1906.48 1855.51 1939.07C1856.47 1940.71 1855.91 1942.82 1854.27 1943.78 1852.63 1944.73 1850.53 1944.18 1849.57 1942.54L1833.53 1915.04 1839.47 1915.04 1823.43 1942.54C1822.47 1944.18 1820.37 1944.73 1818.73 1943.78 1817.09 1942.82 1816.53 1940.71 1817.49 1939.07ZM1855.51 2041.63 1836.5 2074.22 1817.49 2041.63C1816.53 2039.99 1817.09 2037.89 1818.73 2036.93 1820.37 2035.97 1822.47 2036.53 1823.43 2038.17L1839.47 2065.67 1833.53 2065.67 1849.57 2038.17C1850.53 2036.53 1852.63 2035.97 1854.27 2036.93 1855.91 2037.89 1856.47 2039.99 1855.51 2041.63Z"/><path d="M3.63145 1.16167 23.2345 20.4482 20.8237 22.8986 1.22064 3.61205ZM30.5857 27.6806 33.036 30.0915 30.6252 32.5418 28.1749 30.131ZM40.3872 37.3239 59.9903 56.6104 57.5794 59.0608 37.9764 39.7743ZM67.3414 63.8429 69.7918 66.2537 67.381 68.7041 64.9306 66.2933ZM77.1429 73.4861 96.746 92.7727 94.3352 95.223 74.7321 75.9365ZM104.097 100.005 106.548 102.416 104.137 104.866 101.686 102.455ZM113.899 109.648 133.502 128.935 131.091 131.385 111.488 112.099ZM140.853 136.167 143.303 138.578 140.892 141.029 138.442 138.618ZM150.654 145.811 169.239 164.095 166.829 166.546 148.244 148.261ZM9.11996 33.5593-0.00567842-0.00558661 33.7033 8.57241C34.6232 8.8065 35.1792 9.74202 34.9451 10.6619 34.711 11.5819 33.7755 12.1378 32.8556 11.9037L2.00202 4.05237 4.08442 1.93578 12.437 32.6574C12.6861 33.5734 12.1454 34.5178 11.2294 34.7669 10.3134 35.0159 9.369 34.4753 9.11996 33.5593ZM161.34 134.148 170.465 167.713 136.756 159.135C135.836 158.901 135.28 157.965 135.515 157.045 135.749 156.125 136.684 155.569 137.604 155.803L168.458 163.655 166.375 165.771 158.023 135.05C157.774 134.134 158.314 133.189 159.23 132.94 160.146 132.691 161.091 133.232 161.34 134.148Z" transform="matrix(-1 0 0 1 2006.96 1906.5)"/><path d="M3.81144-0.0360617 28.4731 12.1316 26.9522 15.2143 2.29048 3.04665ZM37.7212 16.6944 40.804 18.2154 39.283 21.2981 36.2003 19.7772ZM50.0521 22.7783 74.7138 34.9459 73.1928 38.0286 48.5311 25.861ZM83.9619 39.5088 87.0446 41.0297 85.5237 44.1124 82.441 42.5915ZM96.2928 45.5926 120.954 57.7602 119.433 60.8429 94.7718 48.6753ZM130.203 62.3231 133.285 63.844 131.764 66.9267 128.682 65.4058ZM142.533 68.4069 167.195 80.5745 165.674 83.6572 141.012 71.4896ZM176.443 85.1374 179.526 86.6583 178.005 89.7411 174.922 88.2201ZM188.774 91.2212 213.436 103.389 211.915 106.472 187.253 94.3039ZM222.684 107.952 225.767 109.473 224.246 112.555 221.163 111.034ZM235.015 114.036 259.676 126.203 258.155 129.286 233.494 117.118ZM268.925 130.766 272.007 132.287 270.486 135.37 267.404 133.849ZM281.255 136.85 305.917 149.017 304.396 152.1 279.734 139.933ZM315.165 153.58 318.248 155.101 316.727 158.184 313.644 156.663ZM327.496 159.664 337.62 164.659 336.099 167.742 325.975 162.747ZM19.1822 29.0076-0.00714313-0.00352452 34.6916-2.42715C35.6385-2.49329 36.4598-1.77927 36.5259-0.832334 36.5921 0.114599 35.878 0.935857 34.9311 1.002L3.17164 3.22032 4.48541 0.557541 22.0493 27.1112C22.573 27.9029 22.3557 28.9692 21.564 29.4929 20.7722 30.0166 19.7059 29.7993 19.1822 29.0076ZM320.731 138.699 339.92 167.711 305.221 170.134C304.274 170.2 303.453 169.486 303.387 168.539 303.321 167.592 304.035 166.771 304.982 166.705L336.741 164.487 335.428 167.149 317.864 140.596C317.34 139.804 317.557 138.738 318.349 138.214 319.141 137.69 320.207 137.908 320.731 138.699Z" transform="matrix(-1 0 0 1 2176.41 1906.5)"/><path d="M3.76388-0.572361 29.8895 8.01246 28.8164 11.2782 2.69077 2.69335ZM39.6867 11.2318 42.9524 12.3049 41.8793 15.5706 38.6136 14.4975ZM52.7495 15.5242 78.8752 24.109 77.8021 27.3747 51.6764 18.7899ZM88.6723 27.3283 91.938 28.4014 90.8649 31.6671 87.5992 30.594ZM101.735 31.6207 127.861 40.2056 126.788 43.4713 100.662 34.8864ZM137.658 43.4249 140.924 44.498 139.851 47.7637 136.585 46.6906ZM150.721 47.7173 176.846 56.3021 175.773 59.5678 149.648 50.983ZM186.644 59.5214 189.909 60.5945 188.836 63.8602 185.57 62.7871ZM199.706 63.8138 225.832 72.3987 224.759 75.6644 198.633 67.0795ZM235.629 75.618 238.895 76.6911 237.822 79.9568 234.556 78.8837ZM248.692 79.9104 274.818 88.4952 273.745 91.7609 247.619 83.1761ZM284.615 91.7145 287.881 92.7876 286.807 96.0533 283.542 94.9802ZM297.678 96.0069 323.803 104.592 322.73 107.857 296.605 99.2726ZM333.6 107.811 336.866 108.884 335.793 112.15 332.527 111.077ZM346.663 112.103 372.789 120.688 371.716 123.954 345.59 115.369ZM382.586 123.908 385.852 124.981 384.779 128.246 381.513 127.173ZM395.649 128.2 421.775 136.785 420.702 140.051 394.576 131.466ZM431.572 140.004 434.838 141.077 433.764 144.343 430.499 143.27ZM444.635 144.297 470.76 152.881 469.687 156.147 443.562 147.562ZM480.557 156.101 483.823 157.174 482.75 160.44 479.484 159.366ZM493.62 160.393 507.675 165.011 506.602 168.277 492.547 163.659ZM23.0647 26.0273-0.00756746-0.00248677 34.0073-7.27353C34.9355-7.47195 35.8489-6.8803 36.0473-5.95203 36.2458-5.02377 35.6541-4.1104 34.7258-3.91197L3.59234 2.74315 4.51926-0.0776963 25.6371 23.7471C26.2667 24.4575 26.2013 25.5438 25.491 26.1734 24.7806 26.8031 23.6943 26.7376 23.0647 26.0273ZM487.308 141.68 510.38 167.71 476.365 174.981C475.437 175.179 474.524 174.587 474.325 173.659 474.127 172.731 474.718 171.818 475.647 171.619L506.78 164.964 505.853 167.785 484.735 143.96C484.106 143.25 484.171 142.163 484.882 141.534 485.592 140.904 486.678 140.969 487.308 141.68Z" transform="matrix(-1 0 0 1 2346.87 1906.5)"/><path d="M1.71876 3.40304 1.71879 17.153-1.71871 17.153-1.71874 3.40305ZM1.71881 27.4655 1.71882 30.903-1.71868 30.903-1.71869 27.4655ZM1.71884 41.2155 1.71887 54.9655-1.71863 54.9656-1.71866 41.2155ZM1.71889 65.278 1.7189 68.7155-1.7186 68.7156-1.71861 65.2781ZM1.71892 79.028 1.71895 92.778-1.71855 92.7781-1.71858 79.0281ZM1.71897 103.091 1.71898 106.528-1.71852 106.528-1.71853 103.091ZM1.719 116.841 1.71903 130.591-1.71847 130.591-1.7185 116.841ZM1.71905 140.903 1.71906 144.341-1.71844 144.341-1.71845 140.903ZM1.71908 154.653 1.7191 164.304-1.7184 164.304-1.71842 154.653ZM-17.5262 30.0371 2.64624e-08-0.00796571 17.5264 30.0371C18.0046 30.857 17.7277 31.9094 16.9078 32.3877 16.0878 32.866 15.0354 32.5891 14.5571 31.7691L-1.48461 4.26916 1.48463 4.26915-14.557 31.7692C-15.0353 32.5891-16.0877 32.8661-16.9076 32.3878-17.7276 31.9095-18.0045 30.8571-17.5262 30.0371ZM17.5266 137.67 0.000360866 167.715-17.526 137.67C-18.0043 136.85-17.7273 135.798-16.9074 135.319-16.0875 134.841-15.0351 135.118-14.5568 135.938L1.48497 163.438-1.48427 163.438 14.5573 135.938C15.0356 135.118 16.0881 134.841 16.908 135.319 17.7279 135.798 18.0049 136.85 17.5266 137.67Z" transform="matrix(1 0 0 -1 1836.5 2330.21)"/><path d="M2002.18 2329.03 1992.41 2319.36 1994.83 2316.91 2004.6 2326.59ZM1985.08 2312.1 1982.64 2309.68 1985.06 2307.24 1987.5 2309.66ZM1975.31 2302.42 1965.54 2292.75 1967.96 2290.3 1977.73 2299.98ZM1958.22 2285.49 1955.78 2283.07 1958.19 2280.63 1960.64 2283.05ZM1948.45 2275.81 1938.68 2266.14 1941.1 2263.69 1950.87 2273.37ZM1931.35 2258.88 1928.91 2256.46 1931.33 2254.02 1933.77 2256.44ZM1921.59 2249.2 1911.82 2239.53 1914.24 2237.08 1924 2246.76ZM1904.49 2232.27 1902.05 2229.85 1904.47 2227.41 1906.91 2229.83ZM1894.72 2222.59 1884.95 2212.91 1887.37 2210.47 1897.14 2220.15ZM1877.63 2205.66 1875.18 2203.24 1877.6 2200.8 1880.05 2203.22ZM1867.86 2195.98 1858.09 2186.3 1860.51 2183.86 1870.28 2193.54ZM1850.76 2179.05 1848.32 2176.63 1850.74 2174.19 1853.18 2176.6ZM1840.99 2169.37 1837.71 2166.12 1840.13 2163.67 1843.41 2166.93ZM1996.8 2296.62 2005.81 2330.21 1972.13 2321.52C1971.21 2321.28 1970.66 2320.35 1970.9 2319.43 1971.13 2318.51 1972.07 2317.95 1972.99 2318.19L2003.82 2326.15 2001.73 2328.26 1993.48 2297.51C1993.23 2296.59 1993.78 2295.65 1994.69 2295.4 1995.61 2295.16 1996.55 2295.7 1996.8 2296.62ZM1845.51 2196.09 1836.49 2162.49 1870.17 2171.19C1871.09 2171.42 1871.65 2172.36 1871.41 2173.28 1871.17 2174.2 1870.23 2174.75 1869.32 2174.52L1838.49 2166.56 1840.58 2164.45 1848.83 2195.2C1849.07 2196.12 1848.53 2197.06 1847.61 2197.3 1846.69 2197.55 1845.75 2197.01 1845.51 2196.09Z"/><path d="M2172.6 2330.24 2160.27 2324.16 2161.79 2321.08 2174.12 2327.16ZM2151.02 2319.6 2147.94 2318.08 2149.46 2314.99 2152.54 2316.51ZM2138.69 2313.51 2126.36 2307.43 2127.88 2304.35 2140.21 2310.43ZM2117.11 2302.87 2114.03 2301.34 2115.55 2298.26 2118.63 2299.78ZM2104.78 2296.78 2092.45 2290.7 2093.97 2287.62 2106.3 2293.7ZM2083.2 2286.14 2080.12 2284.61 2081.64 2281.53 2084.72 2283.05ZM2070.87 2280.05 2058.54 2273.97 2060.06 2270.89 2072.39 2276.97ZM2049.29 2269.4 2046.21 2267.88 2047.73 2264.8 2050.81 2266.32ZM2036.96 2263.32 2024.63 2257.24 2026.15 2254.15 2038.48 2260.24ZM2015.38 2252.67 2012.3 2251.15 2013.82 2248.07 2016.9 2249.59ZM2003.05 2246.59 1990.72 2240.51 1992.24 2237.42 2004.57 2243.51ZM1981.47 2235.94 1978.39 2234.42 1979.91 2231.34 1982.99 2232.86ZM1969.14 2229.86 1956.81 2223.78 1958.33 2220.69 1970.66 2226.78ZM1947.56 2219.21 1944.48 2217.69 1946 2214.61 1949.08 2216.13ZM1935.23 2213.13 1922.9 2207.05 1924.42 2203.96 1936.75 2210.05ZM1913.65 2202.48 1910.57 2200.96 1912.09 2197.88 1915.17 2199.4ZM1901.32 2196.4 1888.99 2190.32 1890.51 2187.23 1902.84 2193.32ZM1879.74 2185.75 1876.66 2184.23 1878.18 2181.15 1881.27 2182.67ZM1867.41 2179.67 1855.08 2173.58 1856.6 2170.5 1868.93 2176.59ZM1845.83 2169.02 1842.75 2167.5 1844.27 2164.42 1847.36 2165.94ZM2157.23 2301.2 2176.42 2330.21 2141.72 2332.63C2140.77 2332.7 2139.95 2331.99 2139.89 2331.04 2139.82 2330.09 2140.54 2329.27 2141.48 2329.21L2173.24 2326.99 2171.93 2329.65 2154.36 2303.1C2153.84 2302.3 2154.06 2301.24 2154.85 2300.71 2155.64 2300.19 2156.71 2300.41 2157.23 2301.2ZM1855.68 2191.51 1836.49 2162.5 1871.19 2160.07C1872.14 2160.01 1872.96 2160.72 1873.03 2161.67 1873.09 2162.61 1872.38 2163.44 1871.43 2163.5L1839.67 2165.72 1840.99 2163.06 1858.55 2189.61C1859.07 2190.4 1858.86 2191.47 1858.06 2191.99 1857.27 2192.52 1856.21 2192.3 1855.68 2191.51Z"/><path d="M2344.72 2330.78 2331.65 2326.5 2332.72 2323.23 2345.79 2327.51ZM2321.85 2323.29 2318.58 2322.22 2319.65 2318.95 2322.92 2320.02ZM2308.78 2319.01 2295.71 2314.73 2296.78 2311.46 2309.85 2315.74ZM2285.91 2311.52 2282.65 2310.45 2283.72 2307.18 2286.98 2308.25ZM2272.85 2307.24 2259.78 2302.96 2260.85 2299.69 2273.92 2303.97ZM2249.98 2299.75 2246.71 2298.68 2247.78 2295.41 2251.05 2296.48ZM2236.91 2295.47 2223.85 2291.19 2224.92 2287.92 2237.98 2292.2ZM2214.05 2287.98 2210.78 2286.91 2211.85 2283.64 2215.12 2284.71ZM2200.98 2283.7 2187.91 2279.42 2188.98 2276.15 2202.05 2280.43ZM2178.11 2276.21 2174.85 2275.14 2175.92 2271.87 2179.18 2272.94ZM2165.05 2271.93 2151.98 2267.65 2153.05 2264.38 2166.12 2268.66ZM2142.18 2264.44 2138.91 2263.37 2139.98 2260.1 2143.25 2261.17ZM2129.11 2260.16 2116.05 2255.88 2117.12 2252.61 2130.18 2256.89ZM2106.25 2252.67 2102.98 2251.6 2104.05 2248.33 2107.32 2249.4ZM2093.18 2248.39 2080.11 2244.11 2081.18 2240.84 2094.25 2245.12ZM2070.31 2240.9 2067.05 2239.83 2068.12 2236.56 2071.38 2237.63ZM2057.24 2236.62 2044.18 2232.34 2045.25 2229.07 2058.31 2233.35ZM2034.38 2229.13 2031.11 2228.06 2032.18 2224.79 2035.45 2225.86ZM2021.31 2224.85 2008.24 2220.57 2009.31 2217.3 2022.38 2221.58ZM1998.44 2217.36 1995.18 2216.29 1996.25 2213.02 1999.51 2214.09ZM1985.38 2213.08 1972.31 2208.8 1973.38 2205.53 1986.45 2209.81ZM1962.51 2205.58 1959.24 2204.51 1960.31 2201.25 1963.58 2202.32ZM1949.44 2201.3 1936.38 2197.02 1937.45 2193.76 1950.51 2198.04ZM1926.58 2193.81 1923.31 2192.74 1924.38 2189.48 1927.65 2190.55ZM1913.51 2189.53 1900.44 2185.25 1901.51 2181.99 1914.58 2186.27ZM1890.64 2182.04 1887.38 2180.97 1888.45 2177.71 1891.71 2178.78ZM1877.58 2177.76 1864.51 2173.48 1865.58 2170.22 1878.65 2174.5ZM1854.71 2170.27 1851.44 2169.2 1852.51 2165.94 1855.78 2167.01ZM1841.64 2165.99 1839.19 2165.19 1840.26 2161.92 1842.71 2162.73ZM2325.39 2304.2 2348.49 2330.21 2314.48 2337.51C2313.55 2337.71 2312.64 2337.12 2312.44 2336.19 2312.24 2335.26 2312.83 2334.35 2313.76 2334.15L2344.89 2327.47 2343.96 2330.29 2322.82 2306.48C2322.19 2305.77 2322.26 2304.69 2322.97 2304.06 2323.68 2303.43 2324.76 2303.49 2325.39 2304.2ZM1859.59 2188.51 1836.49 2162.5 1870.5 2155.19C1871.43 2155 1872.34 2155.59 1872.54 2156.51 1872.74 2157.44 1872.15 2158.36 1871.22 2158.56L1840.1 2165.24 1841.02 2162.42 1862.16 2186.22C1862.79 2186.93 1862.73 2188.02 1862.02 2188.65 1861.31 2189.28 1860.22 2189.22 1859.59 2188.51Z"/><text font-family="Arial,Arial_MSFontService,sans-serif" font-weight="400" font-size="46" transform="matrix(1 0 0 1 1747.4 2002)">pos</text><text font-family="Arial,Arial_MSFontService,sans-serif" font-weight="400" font-size="46" transform="matrix(1 0 0 1 2042.25 1994)">neg</text><text font-family="Arial,Arial_MSFontService,sans-serif" font-weight="400" font-size="46" transform="matrix(1 0 0 1 2037.06 2268)">neg</text><path d="M1766.5 1848.82 1773.83 1857.3 1781.17 1870.5 1788.5 1846.5" stroke="#000000" stroke-width="3.4375" stroke-linejoin="round" stroke-miterlimit="10" stroke-dasharray="3.86719 6.38086" fill="none" fill-rule="evenodd"/><path d="M1788.5 1846.5 1795.5 1835.5" stroke="#000000" stroke-width="3.4375" stroke-linecap="square" stroke-linejoin="round" stroke-miterlimit="10" fill="none" fill-rule="evenodd"/><path d="M1795.5 1835.87 1803.1 1817.5 1810.7 1836.58 1818.3 1849.69 1825.9 1864.85 1833.5 1882.5" stroke="#000000" stroke-width="3.4375" stroke-linejoin="round" stroke-miterlimit="10" stroke-dasharray="3.86719 6.38086" fill="none" fill-rule="evenodd"/><path d="M1833.5 1882.5 1840.5 1890.42 1847.5 1890.5" stroke="#000000" stroke-width="3.4375" stroke-linecap="square" stroke-linejoin="round" stroke-miterlimit="10" fill="none" fill-rule="evenodd"/><path d="M1847.5 1890.5 1855.5 1895.5" stroke="#000000" stroke-width="3.4375" stroke-linejoin="round" stroke-miterlimit="10" stroke-dasharray="3.86719 6.38086" fill="none" fill-rule="evenodd"/><path d="M1855.5 1895.5 1862.5 1890.5" stroke="#000000" stroke-width="3.4375" stroke-linecap="square" stroke-linejoin="round" stroke-miterlimit="10" fill="none" fill-rule="evenodd"/><path d="M1862.5 1890.5 1870.5 1891.5" stroke="#000000" stroke-width="3.4375" stroke-linejoin="round" stroke-miterlimit="10" stroke-dasharray="3.86719 6.38086" fill="none" fill-rule="evenodd"/><path d="M1870.5 1890.5 1877.5 1870.5" stroke="#000000" stroke-width="3.4375" stroke-linecap="square" stroke-linejoin="round" stroke-miterlimit="10" fill="none" fill-rule="evenodd"/><path d="M1877.5 1870.5 1884.9 1859.43 1892.3 1862.82 1899.7 1845.86 1907.1 1845.5 1914.5 1867.29" stroke="#000000" stroke-width="3.4375" stroke-linejoin="round" stroke-miterlimit="10" stroke-dasharray="3.86719 6.38086" fill="none" fill-rule="evenodd"/><path d="M1914.5 1866.5 1922.5 1859.5" stroke="#000000" stroke-width="3.4375" stroke-linecap="square" stroke-linejoin="round" stroke-miterlimit="10" fill="none" fill-rule="evenodd"/><path d="M1922.5 1857.5 1929.83 1841.7 1937.17 1830.5 1944.5 1844.38" stroke="#000000" stroke-width="3.4375" stroke-linejoin="round" stroke-miterlimit="10" stroke-dasharray="3.86719 6.38086" fill="none" fill-rule="evenodd"/><path d="M1944.5 1843.95 1951.5 1836.5 1958.5 1851.5" stroke="#000000" stroke-width="3.4375" stroke-linecap="square" stroke-linejoin="round" stroke-miterlimit="10" fill="none" fill-rule="evenodd"/><path d="M1958.5 1851.5 1965.5 1831.95 1972.5 1839.66 1979.5 1822.5" stroke="#000000" stroke-width="3.4375" stroke-linejoin="round" stroke-miterlimit="10" stroke-dasharray="3.86719 6.38086" fill="none" fill-rule="evenodd"/><path d="M1979.5 1822.5 1986.5 1843.6 1993.5 1856.5" stroke="#000000" stroke-width="3.4375" stroke-linecap="square" stroke-linejoin="round" stroke-miterlimit="10" fill="none" fill-rule="evenodd"/><path d="M1993.5 1856.5 2000.5 1870.5" stroke="#000000" stroke-width="3.4375" stroke-linejoin="round" stroke-miterlimit="10" stroke-dasharray="3.86719 6.38086" fill="none" fill-rule="evenodd"/><path d="M2000.5 1870.5 2007.5 1882.5" stroke="#000000" stroke-width="3.4375" stroke-linecap="square" stroke-linejoin="round" stroke-miterlimit="10" fill="none" fill-rule="evenodd"/><path d="M2007.5 1882.5 2014.7 1893.67 2021.9 1893.86 2029.1 1900.5 2036.3 1889.43 2043.5 1894.44" stroke="#000000" stroke-width="3.4375" stroke-linejoin="round" stroke-miterlimit="10" stroke-dasharray="3.86719 6.38086" fill="none" fill-rule="evenodd"/><path d="M2043.5 1894.5 2050.5 1860.85 2057.5 1847.5" stroke="#000000" stroke-width="3.4375" stroke-linecap="square" stroke-linejoin="round" stroke-miterlimit="10" fill="none" fill-rule="evenodd"/><path d="M2057.5 1847.5 2064.5 1845.61 2071.5 1839.5" stroke="#000000" stroke-width="3.4375" stroke-linejoin="round" stroke-miterlimit="10" stroke-dasharray="3.86719 6.38086" fill="none" fill-rule="evenodd"/><path d="M2071.5 1839.5 2078.5 1846.5" stroke="#000000" stroke-width="3.4375" stroke-linecap="square" stroke-linejoin="round" stroke-miterlimit="10" fill="none" fill-rule="evenodd"/><path d="M2088.5 1851.78 2094.25 1857.5 2100 1847.94 2105.75 1850.47 2111.5 1839.5" stroke="#000000" stroke-width="3.4375" stroke-linejoin="round" stroke-miterlimit="10" stroke-dasharray="3.86719 6.38086" fill="none" fill-rule="evenodd"/><path d="M2111.5 1839.5 2117.5 1842.5" stroke="#000000" stroke-width="3.4375" stroke-linecap="square" stroke-linejoin="round" stroke-miterlimit="10" fill="none" fill-rule="evenodd"/><path d="M2117.5 1842.5 2123.5 1846.75 2129.5 1859.5" stroke="#000000" stroke-width="3.4375" stroke-linejoin="round" stroke-miterlimit="10" stroke-dasharray="3.86719 6.38086" fill="none" fill-rule="evenodd"/><path d="M2129.5 1859.5 2134.5 1848.5" stroke="#000000" stroke-width="3.4375" stroke-linecap="square" stroke-linejoin="round" stroke-miterlimit="10" fill="none" fill-rule="evenodd"/><path d="M2134.5 1848.5 2140.5 1834.5" stroke="#000000" stroke-width="3.4375" stroke-linejoin="round" stroke-miterlimit="10" stroke-dasharray="3.86719 6.38086" fill="none" fill-rule="evenodd"/><path d="M2140.5 1834.5 2146.5 1820.5" stroke="#000000" stroke-width="3.4375" stroke-linecap="square" stroke-linejoin="round" stroke-miterlimit="10" fill="none" fill-rule="evenodd"/><path d="M2146.5 1820.5 2152.5 1838.41 2158.5 1838.5" stroke="#000000" stroke-width="3.4375" stroke-linejoin="round" stroke-miterlimit="10" stroke-dasharray="3.86719 6.38086" fill="none" fill-rule="evenodd"/><path d="M2158.5 1838.5 2163.5 1866.5" stroke="#000000" stroke-width="3.4375" stroke-linecap="square" stroke-linejoin="round" stroke-miterlimit="10" fill="none" fill-rule="evenodd"/><path d="M2163.5 1866.5 2169.5 1883.65 2175.5 1891.5 2181.5 1890.24" stroke="#000000" stroke-width="3.4375" stroke-linejoin="round" stroke-miterlimit="10" stroke-dasharray="3.86719 6.38086" fill="none" fill-rule="evenodd"/><path d="M2181.5 1890.5 2186.5 1896.5" stroke="#000000" stroke-width="3.4375" stroke-linecap="square" stroke-linejoin="round" stroke-miterlimit="10" fill="none" fill-rule="evenodd"/><path d="M2186.5 1896.26 2192.5 1889.5 2198.5 1897.5" stroke="#000000" stroke-width="3.4375" stroke-linejoin="round" stroke-miterlimit="10" stroke-dasharray="3.86719 6.38086" fill="none" fill-rule="evenodd"/><path d="M2198.5 1897.5 2204.5 1867.5" stroke="#000000" stroke-width="3.4375" stroke-linecap="square" stroke-linejoin="round" stroke-miterlimit="10" fill="none" fill-rule="evenodd"/><path d="M2204.5 1867.5 2210.5 1837.5" stroke="#000000" stroke-width="3.4375" stroke-linejoin="round" stroke-miterlimit="10" stroke-dasharray="3.86719 6.38086" fill="none" fill-rule="evenodd"/><path d="M2210.5 1837.5 2215.5 1827.5" stroke="#000000" stroke-width="3.4375" stroke-linecap="square" stroke-linejoin="round" stroke-miterlimit="10" fill="none" fill-rule="evenodd"/><path d="M2215.5 1827.5 2221.5 1834.5" stroke="#000000" stroke-width="3.4375" stroke-linejoin="round" stroke-miterlimit="10" stroke-dasharray="3.86719 6.38086" fill="none" fill-rule="evenodd"/><path d="M2221.5 1834.5 2227.5 1836.5" stroke="#000000" stroke-width="3.4375" stroke-linecap="square" stroke-linejoin="round" stroke-miterlimit="10" fill="none" fill-rule="evenodd"/><path d="M2227.5 1836.5 2233.17 1840.11 2238.83 1849.5 2244.5 1844.28" stroke="#000000" stroke-width="3.4375" stroke-linejoin="round" stroke-miterlimit="10" stroke-dasharray="3.86719 6.38086" fill="none" fill-rule="evenodd"/><path d="M2250.5 1839.5 2258.5 1833.5" stroke="#000000" stroke-width="3.4375" stroke-linecap="square" stroke-linejoin="round" stroke-miterlimit="10" fill="none" fill-rule="evenodd"/><path d="M2258.5 1833.5 2266.5 1840.5" stroke="#000000" stroke-width="3.4375" stroke-linejoin="round" stroke-miterlimit="10" stroke-dasharray="3.86719 6.38086" fill="none" fill-rule="evenodd"/><path d="M2266.5 1840.5 2274.5 1841.5" stroke="#000000" stroke-width="3.4375" stroke-linecap="square" stroke-linejoin="round" stroke-miterlimit="10" fill="none" fill-rule="evenodd"/><path d="M2274.5 1842.08 2282.79 1852.35 2291.07 1837.3 2299.36 1828.72 2307.64 1816.5 2315.93 1838.43 2324.21 1843.13 2332.5 1861.5" stroke="#000000" stroke-width="3.4375" stroke-linejoin="round" stroke-miterlimit="10" stroke-dasharray="3.86719 6.38086" fill="none" fill-rule="evenodd"/><path d="M2332.5 1861.5 2340.5 1872.5" stroke="#000000" stroke-width="3.4375" stroke-linecap="square" stroke-linejoin="round" stroke-miterlimit="10" fill="none" fill-rule="evenodd"/><path d="M2340.5 1872.5 2348.5 1884.5" stroke="#000000" stroke-width="3.4375" stroke-linejoin="round" stroke-miterlimit="10" stroke-dasharray="3.86719 6.38086" fill="none" fill-rule="evenodd"/><path d="M2348.5 1884.5 2356.5 1886.31 2364.5 1893.5" stroke="#000000" stroke-width="3.4375" stroke-linecap="square" stroke-linejoin="round" stroke-miterlimit="10" fill="none" fill-rule="evenodd"/><path d="M2364.5 1893.5 2372.83 1887.5 2381.17 1889.87 2389.5 1887.92" stroke="#000000" stroke-width="3.4375" stroke-linejoin="round" stroke-miterlimit="10" stroke-dasharray="3.86719 6.38086" fill="none" fill-rule="evenodd"/><path d="M2389.5 1888.5 2397.5 1889.58 2405.5 1894.5" stroke="#000000" stroke-width="3.4375" stroke-linecap="square" stroke-linejoin="round" stroke-miterlimit="10" fill="none" fill-rule="evenodd"/><path d="M1764.5 2105.82 1771.83 2114.3 1779.17 2127.5 1786.5 2103.5" stroke="#000000" stroke-width="3.4375" stroke-linecap="square" stroke-linejoin="round" stroke-miterlimit="10" fill="none" fill-rule="evenodd"/><path d="M1786.5 2103.5 1793.5 2092.5" stroke="#000000" stroke-width="3.4375" stroke-linejoin="round" stroke-miterlimit="10" stroke-dasharray="3.86719 6.38086" fill="none" fill-rule="evenodd"/><path d="M1793.5 2092.58 1800.9 2074.5 1808.3 2093.29 1815.7 2106.19 1823.1 2121.12 1830.5 2138.5" stroke="#000000" stroke-width="3.4375" stroke-linecap="square" stroke-linejoin="round" stroke-miterlimit="10" fill="none" fill-rule="evenodd"/><path d="M1830.5 2138.5 1838.5 2146.5" stroke="#000000" stroke-width="3.4375" stroke-linejoin="round" stroke-miterlimit="10" stroke-dasharray="3.86719 6.38086" fill="none" fill-rule="evenodd"/><path d="M1838.5 2147.26 1845.9 2147.35 1853.3 2152.5 1860.7 2147.26 1868.1 2147.35 1875.5 2126.5" stroke="#000000" stroke-width="3.4375" stroke-linecap="square" stroke-linejoin="round" stroke-miterlimit="10" fill="none" fill-rule="evenodd"/><path d="M1875.5 2126.5 1882.83 2115.72 1890.17 2119.02 1897.5 2102.5" stroke="#000000" stroke-width="3.4375" stroke-linejoin="round" stroke-miterlimit="10" stroke-dasharray="3.86719 6.38086" fill="none" fill-rule="evenodd"/><path d="M1897.5 2101.86 1905.17 2101.5 1912.83 2123.5 1920.5 2116.11" stroke="#000000" stroke-width="3.4375" stroke-linecap="square" stroke-linejoin="round" stroke-miterlimit="10" fill="none" fill-rule="evenodd"/><path d="M1919.5 2114.5 1925.5 2099.29 1931.5 2088.5" stroke="#000000" stroke-width="3.4375" stroke-linejoin="round" stroke-miterlimit="10" stroke-dasharray="3.86719 6.38086" fill="none" fill-rule="evenodd"/><path d="M1931.5 2088.5 1938 2102.5 1944.5 2094.68" stroke="#000000" stroke-width="3.4375" stroke-linecap="square" stroke-linejoin="round" stroke-miterlimit="10" fill="none" fill-rule="evenodd"/><path d="M1944.5 2094.2 1950.5 2109.5 1956.5 2089.5" stroke="#000000" stroke-width="3.4375" stroke-linejoin="round" stroke-miterlimit="10" stroke-dasharray="3.86719 6.38086" fill="none" fill-rule="evenodd"/><path d="M1956.5 2090.16 1962.83 2098.03 1969.17 2080.5 1975.5 2101.5" stroke="#000000" stroke-width="3.4375" stroke-linecap="square" stroke-linejoin="round" stroke-miterlimit="10" fill="none" fill-rule="evenodd"/><path d="M1975.5 2101.5 1981.5 2114.5" stroke="#000000" stroke-width="3.4375" stroke-linejoin="round" stroke-miterlimit="10" stroke-dasharray="3.86719 6.38086" fill="none" fill-rule="evenodd"/><path d="M1981.5 2114.5 1988 2129.13 1994.5 2140.5" stroke="#000000" stroke-width="3.4375" stroke-linecap="square" stroke-linejoin="round" stroke-miterlimit="10" fill="none" fill-rule="evenodd"/><path d="M1994.5 2140.5 2000.5 2151.5" stroke="#000000" stroke-width="3.4375" stroke-linejoin="round" stroke-miterlimit="10" stroke-dasharray="3.86719 6.38086" fill="none" fill-rule="evenodd"/><path d="M2000.5 2151.5 2006.5 2151.67 2012.5 2157.5" stroke="#000000" stroke-width="3.4375" stroke-linecap="square" stroke-linejoin="round" stroke-miterlimit="10" fill="none" fill-rule="evenodd"/><path d="M2012.5 2157.5 2019.5 2147.5" stroke="#000000" stroke-width="3.4375" stroke-linejoin="round" stroke-miterlimit="10" stroke-dasharray="3.86719 6.38086" fill="none" fill-rule="evenodd"/><path d="M2019.5 2147.5 2025.5 2152.5" stroke="#000000" stroke-width="3.4375" stroke-linecap="square" stroke-linejoin="round" stroke-miterlimit="10" fill="none" fill-rule="evenodd"/><path d="M2025.5 2152.5 2031.5 2118.5" stroke="#000000" stroke-width="3.4375" stroke-linejoin="round" stroke-miterlimit="10" stroke-dasharray="3.86719 6.38086" fill="none" fill-rule="evenodd"/><path d="M2031.5 2118.5 2037.5 2104.5" stroke="#000000" stroke-width="3.4375" stroke-linecap="square" stroke-linejoin="round" stroke-miterlimit="10" fill="none" fill-rule="evenodd"/><path d="M2037.5 2104.5 2044.5 2103.5" stroke="#000000" stroke-width="3.4375" stroke-linejoin="round" stroke-miterlimit="10" stroke-dasharray="3.86719 6.38086" fill="none" fill-rule="evenodd"/><path d="M2044.5 2103.14 2050.5 2097.5 2056.5 2104.5" stroke="#000000" stroke-width="3.4375" stroke-linecap="square" stroke-linejoin="round" stroke-miterlimit="10" fill="none" fill-rule="evenodd"/><path d="M2056.5 2104.5 2062.5 2110.5" stroke="#000000" stroke-width="3.4375" stroke-linejoin="round" stroke-miterlimit="10" stroke-dasharray="3.86719 6.38086" fill="none" fill-rule="evenodd"/><path d="M2062.5 2110.5 2068.5 2100.5" stroke="#000000" stroke-width="3.4375" stroke-linecap="square" stroke-linejoin="round" stroke-miterlimit="10" fill="none" fill-rule="evenodd"/><path d="M2068.5 2100.5 2075.5 2103.5" stroke="#000000" stroke-width="3.4375" stroke-linejoin="round" stroke-miterlimit="10" stroke-dasharray="3.86719 6.38086" fill="none" fill-rule="evenodd"/><path d="M2067.5 2107.5 2076.5 2096.5" stroke="#000000" stroke-width="3.4375" stroke-linecap="square" stroke-linejoin="round" stroke-miterlimit="10" fill="none" fill-rule="evenodd"/><path d="M2076.5 2096.5 2085 2099.94 2093.5 2104.5" stroke="#000000" stroke-width="3.4375" stroke-linejoin="round" stroke-miterlimit="10" stroke-dasharray="3.86719 6.38086" fill="none" fill-rule="evenodd"/><path d="M2093.5 2104.5 2102.5 2117.5" stroke="#000000" stroke-width="3.4375" stroke-linecap="square" stroke-linejoin="round" stroke-miterlimit="10" fill="none" fill-rule="evenodd"/><path d="M2102.5 2117.5 2110.5 2106.5" stroke="#000000" stroke-width="3.4375" stroke-linejoin="round" stroke-miterlimit="10" stroke-dasharray="3.86719 6.38086" fill="none" fill-rule="evenodd"/><path d="M2110.5 2106.5 2119.25 2092.15 2128 2077.5 2136.75 2096.05 2145.5 2096.15" stroke="#000000" stroke-width="3.4375" stroke-linecap="square" stroke-linejoin="round" stroke-miterlimit="10" fill="none" fill-rule="evenodd"/><path d="M2145.5 2096.5 2154 2124.41 2162.5 2141.5" stroke="#000000" stroke-width="3.4375" stroke-linejoin="round" stroke-miterlimit="10" stroke-dasharray="3.86719 6.38086" fill="none" fill-rule="evenodd"/><path d="M2162.5 2141.5 2171.5 2149.5 2180.5 2148.22" stroke="#000000" stroke-width="3.4375" stroke-linecap="square" stroke-linejoin="round" stroke-miterlimit="10" fill="none" fill-rule="evenodd"/><path d="M2180.5 2147.5 2188.5 2154.5" stroke="#000000" stroke-width="3.4375" stroke-linejoin="round" stroke-miterlimit="10" stroke-dasharray="3.86719 6.38086" fill="none" fill-rule="evenodd"/><path d="M2188.5 2154.15 2197.17 2146.79 2205.83 2155.5 2214.5 2125.5" stroke="#000000" stroke-width="3.4375" stroke-linecap="square" stroke-linejoin="round" stroke-miterlimit="10" fill="none" fill-rule="evenodd"/><path d="M2214.5 2125.5 2223.5 2094.5" stroke="#000000" stroke-width="3.4375" stroke-linejoin="round" stroke-miterlimit="10" stroke-dasharray="3.86719 6.38086" fill="none" fill-rule="evenodd"/><path d="M2228.5 2093.4 2232 2085.5 2235.5 2091.25 2239 2092.48 2242.5 2095.39 2246 2102.98 2249.5 2098.77 2253 2093.32 2256.5 2099.15 2260 2100.76 2263.5 2110.5" stroke="#000000" stroke-width="3.4375" stroke-linecap="square" stroke-linejoin="round" stroke-miterlimit="10" fill="none" fill-rule="evenodd"/><path d="M2266.5 2112.5 2276.5 2097.5" stroke="#000000" stroke-width="3.4375" stroke-linejoin="round" stroke-miterlimit="10" stroke-dasharray="3.86719 6.38086" fill="none" fill-rule="evenodd"/><path d="M2276.5 2097.5 2287.5 2089.5" stroke="#000000" stroke-width="3.4375" stroke-linecap="square" stroke-linejoin="round" stroke-miterlimit="10" fill="none" fill-rule="evenodd"/><path d="M2287.5 2088.76 2298.5 2076.5 2309.5 2098.5" stroke="#000000" stroke-width="3.4375" stroke-linejoin="round" stroke-miterlimit="10" stroke-dasharray="3.86719 6.38086" fill="none" fill-rule="evenodd"/><path d="M2309.5 2098.5 2320.17 2103.26 2330.83 2121.87 2341.5 2133.51 2352.17 2144.74 2362.83 2146.71 2373.5 2154.5" stroke="#000000" stroke-width="3.4375" stroke-linecap="square" stroke-linejoin="round" stroke-miterlimit="10" fill="none" fill-rule="evenodd"/><path d="M2373.5 2154.5 2384.5 2148.5" stroke="#000000" stroke-width="3.4375" stroke-linejoin="round" stroke-miterlimit="10" stroke-dasharray="3.86719 6.38086" fill="none" fill-rule="evenodd"/><path d="M1757.5 2415.5 1764 2405.5 1770.5 2405.5" stroke="#000000" stroke-width="3.4375" stroke-linejoin="round" stroke-miterlimit="10" stroke-dasharray="3.86719 6.38086" fill="none" fill-rule="evenodd"/><path d="M1770.5 2405.5 1777.5 2405.5" stroke="#000000" stroke-width="3.4375" stroke-linecap="square" stroke-linejoin="round" stroke-miterlimit="10" fill="none" fill-rule="evenodd"/><path d="M1777.5 2405.5 1784.5 2399.14 1791.5 2390.5" stroke="#000000" stroke-width="3.4375" stroke-linejoin="round" stroke-miterlimit="10" stroke-dasharray="3.86719 6.38086" fill="none" fill-rule="evenodd"/><path d="M1791.5 2390.5 1797.5 2388.5" stroke="#000000" stroke-width="3.4375" stroke-linecap="square" stroke-linejoin="round" stroke-miterlimit="10" fill="none" fill-rule="evenodd"/><path d="M1797.5 2388.68 1804.5 2390.05 1811.5 2395.5 1818.5 2391.86 1825.5 2375.5" stroke="#000000" stroke-width="3.4375" stroke-linejoin="round" stroke-miterlimit="10" stroke-dasharray="3.86719 6.38086" fill="none" fill-rule="evenodd"/><path d="M1825.5 2375.5 1831.5 2374.5" stroke="#000000" stroke-width="3.4375" stroke-linecap="square" stroke-linejoin="round" stroke-miterlimit="10" fill="none" fill-rule="evenodd"/><path d="M1831.5 2374.38 1838.25 2372.5 1845 2375.79 1851.75 2380.5 1858.5 2379.09" stroke="#000000" stroke-width="3.4375" stroke-linejoin="round" stroke-miterlimit="10" stroke-dasharray="3.86719 6.38086" fill="none" fill-rule="evenodd"/><path d="M1858.5 2379.5 1865.5 2380.5" stroke="#000000" stroke-width="3.4375" stroke-linecap="square" stroke-linejoin="round" stroke-miterlimit="10" fill="none" fill-rule="evenodd"/><path d="M1865.5 2380.5 1872.5 2374.5" stroke="#000000" stroke-width="3.4375" stroke-linejoin="round" stroke-miterlimit="10" stroke-dasharray="3.86719 6.38086" fill="none" fill-rule="evenodd"/><path d="M1872.5 2374.5 1879.5 2358.5" stroke="#000000" stroke-width="3.4375" stroke-linecap="square" stroke-linejoin="round" stroke-miterlimit="10" fill="none" fill-rule="evenodd"/><path d="M1879.5 2358.5 1886.3 2353.69 1893.1 2340.12 1899.9 2337.5 1906.7 2348 1913.5 2338.38" stroke="#000000" stroke-width="3.4375" stroke-linejoin="round" stroke-miterlimit="10" stroke-dasharray="3.86719 6.38086" fill="none" fill-rule="evenodd"/><path d="M1925.5 2365.5 1930.9 2358.85 1936.3 2340.12 1941.7 2336.5 1947.1 2351 1952.5 2337.71" stroke="#000000" stroke-width="3.4375" stroke-linejoin="round" stroke-miterlimit="10" stroke-dasharray="3.86719 6.38086" fill="none" fill-rule="evenodd"/><path d="M1952.5 2337.5 1958.5 2348.5" stroke="#000000" stroke-width="3.4375" stroke-linecap="square" stroke-linejoin="round" stroke-miterlimit="10" fill="none" fill-rule="evenodd"/><path d="M1958.5 2348.5 1963.5 2330.5 1968.5 2346.7" stroke="#000000" stroke-width="3.4375" stroke-linejoin="round" stroke-miterlimit="10" stroke-dasharray="3.86719 6.38086" fill="none" fill-rule="evenodd"/><path d="M1968.5 2346.5 1974 2385.27 1979.5 2386.5" stroke="#000000" stroke-width="3.4375" stroke-linecap="square" stroke-linejoin="round" stroke-miterlimit="10" fill="none" fill-rule="evenodd"/><path d="M1979.5 2386.5 1984.5 2408.5" stroke="#000000" stroke-width="3.4375" stroke-linejoin="round" stroke-miterlimit="10" stroke-dasharray="3.86719 6.38086" fill="none" fill-rule="evenodd"/><path d="M1984.5 2408.5 1990 2368.01 1995.5 2353.5" stroke="#000000" stroke-width="3.4375" stroke-linecap="square" stroke-linejoin="round" stroke-miterlimit="10" fill="none" fill-rule="evenodd"/><path d="M1995.5 2353.5 2001.5 2343.5" stroke="#000000" stroke-width="3.4375" stroke-linejoin="round" stroke-miterlimit="10" stroke-dasharray="3.86719 6.38086" fill="none" fill-rule="evenodd"/><path d="M2001.5 2343.5 2006.5 2340.5" stroke="#000000" stroke-width="3.4375" stroke-linecap="square" stroke-linejoin="round" stroke-miterlimit="10" fill="none" fill-rule="evenodd"/><path d="M2006.5 2340.3 2011.83 2338.5 2017.17 2345.1 2022.5 2350.5" stroke="#000000" stroke-width="3.4375" stroke-linejoin="round" stroke-miterlimit="10" stroke-dasharray="3.86719 6.38086" fill="none" fill-rule="evenodd"/><path d="M2022.5 2350.5 2028 2359.02 2033.5 2364.5" stroke="#000000" stroke-width="3.4375" stroke-linecap="square" stroke-linejoin="round" stroke-miterlimit="10" fill="none" fill-rule="evenodd"/><path d="M2033.5 2364.5 2038.9 2370.47 2044.3 2376.44 2049.7 2382.42 2055.1 2400.33 2060.5 2407.5" stroke="#000000" stroke-width="3.4375" stroke-linejoin="round" stroke-miterlimit="10" stroke-dasharray="3.86719 6.38086" fill="none" fill-rule="evenodd"/><path d="M2060.5 2407.5 2065.5 2400.5 2070.5 2400.5" stroke="#000000" stroke-width="3.4375" stroke-linecap="square" stroke-linejoin="round" stroke-miterlimit="10" fill="none" fill-rule="evenodd"/><path d="M2070.5 2400.5 2076.5 2402.5" stroke="#000000" stroke-width="3.4375" stroke-linejoin="round" stroke-miterlimit="10" stroke-dasharray="3.86719 6.38086" fill="none" fill-rule="evenodd"/><path d="M2076.5 2402.5 2081.5 2397.5" stroke="#000000" stroke-width="3.4375" stroke-linecap="square" stroke-linejoin="round" stroke-miterlimit="10" fill="none" fill-rule="evenodd"/><path d="M2097.5 2342.5 2103.5 2336.5" stroke="#000000" stroke-width="3.4375" stroke-linecap="square" stroke-linejoin="round" stroke-miterlimit="10" fill="none" fill-rule="evenodd"/><path d="M2103.5 2336.5 2109.83 2362.75 2116.17 2371.5 2122.5 2364.34" stroke="#000000" stroke-width="3.4375" stroke-linejoin="round" stroke-miterlimit="10" stroke-dasharray="3.86719 6.38086" fill="none" fill-rule="evenodd"/><path d="M2122.5 2364.5 2128.5 2356.5" stroke="#000000" stroke-width="3.4375" stroke-linecap="square" stroke-linejoin="round" stroke-miterlimit="10" fill="none" fill-rule="evenodd"/><path d="M2128.5 2356.31 2134.5 2355.5 2140.5 2372.5" stroke="#000000" stroke-width="3.4375" stroke-linejoin="round" stroke-miterlimit="10" stroke-dasharray="3.86719 6.38086" fill="none" fill-rule="evenodd"/><path d="M2140.5 2372.5 2146.5 2360.5" stroke="#000000" stroke-width="3.4375" stroke-linecap="square" stroke-linejoin="round" stroke-miterlimit="10" fill="none" fill-rule="evenodd"/><path d="M2146.5 2360.17 2152.83 2355.5 2159.17 2360.17 2165.5 2369.5" stroke="#000000" stroke-width="3.4375" stroke-linejoin="round" stroke-miterlimit="10" stroke-dasharray="3.86719 6.38086" fill="none" fill-rule="evenodd"/><path d="M2165.5 2369.5 2171.5 2383.5" stroke="#000000" stroke-width="3.4375" stroke-linecap="square" stroke-linejoin="round" stroke-miterlimit="10" fill="none" fill-rule="evenodd"/><path d="M2171.5 2383.5 2178.5 2384.5" stroke="#000000" stroke-width="3.4375" stroke-linejoin="round" stroke-miterlimit="10" stroke-dasharray="3.86719 6.38086" fill="none" fill-rule="evenodd"/><path d="M2178.5 2384.5 2184.5 2393.4 2190.5 2401.5" stroke="#000000" stroke-width="3.4375" stroke-linecap="square" stroke-linejoin="round" stroke-miterlimit="10" fill="none" fill-rule="evenodd"/><path d="M2190.5 2401.5 2196.83 2403.9 2203.17 2408.7 2209.5 2409.5" stroke="#000000" stroke-width="3.4375" stroke-linejoin="round" stroke-miterlimit="10" stroke-dasharray="3.86719 6.38086" fill="none" fill-rule="evenodd"/><path d="M2209.5 2409.5 2215.5 2402.5" stroke="#000000" stroke-width="3.4375" stroke-linecap="square" stroke-linejoin="round" stroke-miterlimit="10" fill="none" fill-rule="evenodd"/><path d="M2215.5 2402.5 2221.5 2401.5" stroke="#000000" stroke-width="3.4375" stroke-linejoin="round" stroke-miterlimit="10" stroke-dasharray="3.86719 6.38086" fill="none" fill-rule="evenodd"/><path d="M2221.5 2401.5 2228.5 2400.5" stroke="#000000" stroke-width="3.4375" stroke-linecap="square" stroke-linejoin="round" stroke-miterlimit="10" fill="none" fill-rule="evenodd"/><path d="M2228.5 2401.25 2234.5 2400.5 2240.5 2407.25 2246.5 2409.5" stroke="#000000" stroke-width="3.4375" stroke-linejoin="round" stroke-miterlimit="10" stroke-dasharray="3.86719 6.38086" fill="none" fill-rule="evenodd"/><path d="M2246.5 2409.5 2252.5 2414.5" stroke="#000000" stroke-width="3.4375" stroke-linecap="square" stroke-linejoin="round" stroke-miterlimit="10" fill="none" fill-rule="evenodd"/><path d="M2266.5 2381.5 2272.5 2388.5" stroke="#000000" stroke-width="3.4375" stroke-linecap="square" stroke-linejoin="round" stroke-miterlimit="10" fill="none" fill-rule="evenodd"/><path d="M2272.5 2388.56 2279 2398.06 2285.5 2402.81 2292 2413.5 2298.5 2408.75 2305 2406.38 2311.5 2393.31 2318 2390.94 2324.5 2381.44 2331 2382.63 2337.5 2375.5 2344 2376.69 2350.5 2379.06" stroke="#000000" stroke-width="3.4375" stroke-linejoin="round" stroke-miterlimit="10" stroke-dasharray="3.86719 6.38086" fill="none" fill-rule="evenodd"/><path d="M2350.5 2379.5 2357.17 2373.56 2363.83 2371.19 2370.5 2360.5" stroke="#000000" stroke-width="3.4375" stroke-linecap="square" stroke-linejoin="round" stroke-miterlimit="10" fill="none" fill-rule="evenodd"/><path d="M2370.5 2360.5 2377 2339.07 2383.5 2337.88 2390 2335.5 2396.5 2337.88" stroke="#000000" stroke-width="3.4375" stroke-linejoin="round" stroke-miterlimit="10" stroke-dasharray="3.86719 6.38086" fill="none" fill-rule="evenodd"/><path d="M2396.5 2338.5 2402.5 2342.5" stroke="#000000" stroke-width="3.4375" stroke-linecap="square" stroke-linejoin="round" stroke-miterlimit="10" fill="none" fill-rule="evenodd"/><path d="M2402.5 2342.83 2409.17 2347.5 2415.83 2347.5 2422.5 2340.5" stroke="#000000" stroke-width="3.4375" stroke-linejoin="round" stroke-miterlimit="10" stroke-dasharray="3.86719 6.38086" fill="none" fill-rule="evenodd"/><text font-family="Arial,Arial_MSFontService,sans-serif" font-weight="400" font-size="37" transform="matrix(1 0 0 1 1517.74 1856)">Missing </text><text font-family="Arial,Arial_MSFontService,sans-serif" font-weight="400" font-size="37" transform="matrix(1 0 0 1 1652.38 1856)">Rate</text><text font-family="Arial,Arial_MSFontService,sans-serif" font-weight="400" font-size="37" transform="matrix(1 0 0 1 1587.06 1900)">7</text><text font-family="Arial,Arial_MSFontService,sans-serif" font-weight="400" font-size="37" transform="matrix(1 0 0 1 1607.69 1900)">0</text><text font-family="Arial,Arial_MSFontService,sans-serif" font-weight="400" font-size="37" transform="matrix(1 0 0 1 1628.31 1900)">%</text><text font-family="Arial,Arial_MSFontService,sans-serif" font-weight="400" font-size="37" transform="matrix(1 0 0 1 1517.74 2369)">Missing </text><text font-family="Arial,Arial_MSFontService,sans-serif" font-weight="400" font-size="37" transform="matrix(1 0 0 1 1652.38 2369)">Rate</text><text font-family="Arial,Arial_MSFontService,sans-serif" font-weight="400" font-size="37" transform="matrix(1 0 0 1 1587.06 2413)">7</text><text font-family="Arial,Arial_MSFontService,sans-serif" font-weight="400" font-size="37" transform="matrix(1 0 0 1 1607.69 2413)">0</text><text font-family="Arial,Arial_MSFontService,sans-serif" font-weight="400" font-size="37" transform="matrix(1 0 0 1 1628.31 2413)">%</text><text font-family="Arial,Arial_MSFontService,sans-serif" font-weight="400" font-size="37" transform="matrix(1 0 0 1 1517.74 2112)">Missing </text><text font-family="Arial,Arial_MSFontService,sans-serif" font-weight="400" font-size="37" transform="matrix(1 0 0 1 1652.38 2112)">Rate</text><text font-family="Arial,Arial_MSFontService,sans-serif" font-weight="400" font-size="37" transform="matrix(1 0 0 1 1587.06 2156)">2</text><text font-family="Arial,Arial_MSFontService,sans-serif" font-weight="400" font-size="37" transform="matrix(1 0 0 1 1607.69 2156)">0</text><text font-family="Arial,Arial_MSFontService,sans-serif" font-weight="400" font-size="37" transform="matrix(1 0 0 1 1628.31 2156)">%</text><text font-family="Arial,Arial_MSFontService,sans-serif" font-weight="400" font-size="37" transform="matrix(1 0 0 1 2455.34 1872)">Series</text><text font-family="Arial,Arial_MSFontService,sans-serif" font-weight="400" font-size="37" transform="matrix(1 0 0 1 2497.17 1916)">0</text><text font-family="Arial,Arial_MSFontService,sans-serif" font-weight="400" font-size="37" transform="matrix(1 0 0 1 2455.34 2392)">Series</text><text font-family="Arial,Arial_MSFontService,sans-serif" font-weight="400" font-size="37" transform="matrix(1 0 0 1 2497.17 2436)">1</text><text font-family="Arial,Arial_MSFontService,sans-serif" font-weight="400" font-size="37" transform="matrix(1 0 0 1 2455.34 2130)">Series</text><text font-family="Arial,Arial_MSFontService,sans-serif" font-weight="400" font-size="37" transform="matrix(1 0 0 1 2497.17 2174)">0</text></g></svg>