<svg width="1353" height="1560" xmlns="http://www.w3.org/2000/svg" xmlns:xlink="http://www.w3.org/1999/xlink" xml:space="preserve" overflow="hidden"><g transform="translate(-2754 -652)"><path d="M2980.5 674.667C2980.5 664.081 2989.08 655.5 2999.67 655.5L3677.33 655.5C3687.92 655.5 3696.5 664.081 3696.5 674.667L3696.5 751.333C3696.5 761.919 3687.92 770.5 3677.33 770.5L2999.67 770.5C2989.08 770.5 2980.5 761.919 2980.5 751.333Z" stroke="#000000" stroke-width="6.875" stroke-miterlimit="8" stroke-dasharray="27.5 20.625" fill="none" fill-rule="evenodd"/><path d="M3018.5 707.703 3025.3 715.125 3032.1 726.688 3038.9 705.672 3045.7 695.984 3052.5 679.891 3059.3 696.609 3066.1 708.094 3072.9 721.375 3079.7 736.844 3086.5 744.188 3093.3 744.266 3100.1 748.719 3106.9 744.188 3113.7 744.266 3120.5 726.219 3127.3 716.531 3134.1 719.5 3140.9 704.656 3147.7 704.344 3154.5 723.406 3161.3 717 3168.1 704.109 3174.9 694.969 3181.7 706.297 3188.5 699.969 3195.3 712.703 3202.1 696.063 3208.9 702.625 3215.7 688.016 3222.5 705.516 3229.3 716.219 3236.1 728.484 3242.9 738.016 3249.7 747.078 3256.5 747.234 3263.3 752.625 3270.1 743.641 3276.9 747.703 3283.7 719.734 3290.5 708.641 3297.3 707.234 3304.1 702.703 3310.9 708.328 3317.7 713.094 3324.5 705.125 3331.3 707.234 3338.1 698.094 3344.9 700.75 3351.7 704.266 3358.5 714.813 3365.3 705.984 3372.1 694.5 3378.9 682.781 3385.7 697.625 3392.5 697.703 3399.3 720.281 3406.1 734.109 3412.9 740.438 3419.7 739.422 3426.5 744.578 3433.3 738.641 3440.1 745.672 3446.9 721.453 3453.7 696.688 3460.5 688.641 3467.3 694.5 3474.1 695.75 3480.9 698.719 3487.7 706.453 3494.5 702.156 3501.3 696.609 3508.1 702.547 3514.9 704.188 3521.7 714.109 3528.5 699.578 3535.3 691.297 3542.1 679.5 3548.9 700.672 3555.7 705.203 3562.5 722.938 3569.3 734.031 3576.1 744.734 3582.9 746.609 3589.7 754.031 3596.5 748.484 3603.3 750.672 3610.1 748.875 3616.9 749.891 3623.7 754.5 3630.5 751.063 3637.3 744.109 3644.1 742.625 3650.9 733.172 3657.7 732 3664.5 737.234" stroke="#FEFFBF" stroke-width="4.58333" stroke-linecap="square" stroke-linejoin="round" stroke-miterlimit="10" fill="none" fill-rule="evenodd"/><path d="M3273.5 1265.33C3273.5 1257.14 3280.14 1250.5 3288.33 1250.5L3429.67 1250.5C3437.86 1250.5 3444.5 1257.14 3444.5 1265.33L3444.5 1324.67C3444.5 1332.86 3437.86 1339.5 3429.67 1339.5L3288.33 1339.5C3280.14 1339.5 3273.5 1332.86 3273.5 1324.67Z" stroke="#000000" stroke-width="6.875" stroke-miterlimit="8" fill="#F4FBD3" fill-rule="evenodd"/><path d="M3442.5 1265.33C3442.5 1257.14 3449.14 1250.5 3457.33 1250.5L3598.67 1250.5C3606.86 1250.5 3613.5 1257.14 3613.5 1265.33L3613.5 1324.67C3613.5 1332.86 3606.86 1339.5 3598.67 1339.5L3457.33 1339.5C3449.14 1339.5 3442.5 1332.86 3442.5 1324.67Z" stroke="#000000" stroke-width="6.875" stroke-miterlimit="8" fill="#F4FBD3" fill-rule="evenodd"/><path d="M3615.5 1265.33C3615.5 1257.14 3622.14 1250.5 3630.33 1250.5L3772.67 1250.5C3780.86 1250.5 3787.5 1257.14 3787.5 1265.33L3787.5 1324.67C3787.5 1332.86 3780.86 1339.5 3772.67 1339.5L3630.33 1339.5C3622.14 1339.5 3615.5 1332.86 3615.5 1324.67Z" stroke="#000000" stroke-width="6.875" stroke-miterlimit="8" fill="#F4FBD3" fill-rule="evenodd"/><path d="M3786.5 1265.33C3786.5 1257.14 3793.14 1250.5 3801.33 1250.5L3943.67 1250.5C3951.86 1250.5 3958.5 1257.14 3958.5 1265.33L3958.5 1324.67C3958.5 1332.86 3951.86 1339.5 3943.67 1339.5L3801.33 1339.5C3793.14 1339.5 3786.5 1332.86 3786.5 1324.67Z" stroke="#000000" stroke-width="6.875" stroke-miterlimit="8" fill="#F4FBD3" fill-rule="evenodd"/><path d="M3200.5 1293.33C3200.5 1285.14 3207.14 1278.5 3215.33 1278.5L3356.67 1278.5C3364.86 1278.5 3371.5 1285.14 3371.5 1293.33L3371.5 1352.67C3371.5 1360.86 3364.86 1367.5 3356.67 1367.5L3215.33 1367.5C3207.14 1367.5 3200.5 1360.86 3200.5 1352.67Z" stroke="#000000" stroke-width="6.875" stroke-miterlimit="8" fill="#FFDDDC" fill-rule="evenodd"/><path d="M3369.5 1293.33C3369.5 1285.14 3376.14 1278.5 3384.33 1278.5L3526.67 1278.5C3534.86 1278.5 3541.5 1285.14 3541.5 1293.33L3541.5 1352.67C3541.5 1360.86 3534.86 1367.5 3526.67 1367.5L3384.33 1367.5C3376.14 1367.5 3369.5 1360.86 3369.5 1352.67Z" stroke="#000000" stroke-width="6.875" stroke-miterlimit="8" fill="#FFDDDC" fill-rule="evenodd"/><path d="M3543.5 1293.33C3543.5 1285.14 3550.14 1278.5 3558.33 1278.5L3699.67 1278.5C3707.86 1278.5 3714.5 1285.14 3714.5 1293.33L3714.5 1352.67C3714.5 1360.86 3707.86 1367.5 3699.67 1367.5L3558.33 1367.5C3550.14 1367.5 3543.5 1360.86 3543.5 1352.67Z" stroke="#000000" stroke-width="6.875" stroke-miterlimit="8" fill="#FFDDDC" fill-rule="evenodd"/><path d="M3714.5 1293.33C3714.5 1285.14 3721.14 1278.5 3729.33 1278.5L3870.67 1278.5C3878.86 1278.5 3885.5 1285.14 3885.5 1293.33L3885.5 1352.67C3885.5 1360.86 3878.86 1367.5 3870.67 1367.5L3729.33 1367.5C3721.14 1367.5 3714.5 1360.86 3714.5 1352.67Z" stroke="#000000" stroke-width="6.875" stroke-miterlimit="8" fill="#FFDDDC" fill-rule="evenodd"/><path d="M2989.5 1557.33C2989.5 1549.14 2996.14 1542.5 3004.33 1542.5L3145.67 1542.5C3153.86 1542.5 3160.5 1549.14 3160.5 1557.33L3160.5 1616.67C3160.5 1624.86 3153.86 1631.5 3145.67 1631.5L3004.33 1631.5C2996.14 1631.5 2989.5 1624.86 2989.5 1616.67Z" stroke="#000000" stroke-width="6.875" stroke-miterlimit="8" fill="#FEFFBF" fill-rule="evenodd"/><path d="M3159.5 1557.33C3159.5 1549.14 3166.14 1542.5 3174.33 1542.5L3315.67 1542.5C3323.86 1542.5 3330.5 1549.14 3330.5 1557.33L3330.5 1616.67C3330.5 1624.86 3323.86 1631.5 3315.67 1631.5L3174.33 1631.5C3166.14 1631.5 3159.5 1624.86 3159.5 1616.67Z" stroke="#000000" stroke-width="6.875" stroke-miterlimit="8" fill="#FEFFBF" fill-rule="evenodd"/><path d="M3329.5 1557.33C3329.5 1549.14 3336.14 1542.5 3344.33 1542.5L3485.67 1542.5C3493.86 1542.5 3500.5 1549.14 3500.5 1557.33L3500.5 1616.67C3500.5 1624.86 3493.86 1631.5 3485.67 1631.5L3344.33 1631.5C3336.14 1631.5 3329.5 1624.86 3329.5 1616.67Z" stroke="#000000" stroke-width="6.875" stroke-miterlimit="8" fill="#FEFFBF" fill-rule="evenodd"/><path d="M3499.5 1557.33C3499.5 1549.14 3506.14 1542.5 3514.33 1542.5L3655.67 1542.5C3663.86 1542.5 3670.5 1549.14 3670.5 1557.33L3670.5 1616.67C3670.5 1624.86 3663.86 1631.5 3655.67 1631.5L3514.33 1631.5C3506.14 1631.5 3499.5 1624.86 3499.5 1616.67Z" stroke="#000000" stroke-width="6.875" stroke-miterlimit="8" fill="#FEFFBF" fill-rule="evenodd"/><path d="M3004.5 1574.72 3011.83 1582.85 3019.17 1595.5 3026.5 1572.5" stroke="#000000" stroke-width="3.4375" stroke-linejoin="round" stroke-miterlimit="10" stroke-dasharray="3.86719 6.38086" fill="none" fill-rule="evenodd"/><path d="M3026.5 1572.5 3034.5 1561.5" stroke="#000000" stroke-width="3.4375" stroke-linecap="square" stroke-linejoin="round" stroke-miterlimit="10" fill="none" fill-rule="evenodd"/><path d="M3034.5 1560.87 3041.9 1542.5 3049.3 1561.58 3056.7 1574.69 3064.1 1589.85 3071.5 1607.5" stroke="#000000" stroke-width="3.4375" stroke-linejoin="round" stroke-miterlimit="10" stroke-dasharray="3.86719 6.38086" fill="none" fill-rule="evenodd"/><path d="M3071.5 1607.5 3079 1615.42 3086.5 1615.5" stroke="#000000" stroke-width="3.4375" stroke-linecap="square" stroke-linejoin="round" stroke-miterlimit="10" fill="none" fill-rule="evenodd"/><path d="M3086.5 1615.5 3093.5 1620.5" stroke="#000000" stroke-width="3.4375" stroke-linejoin="round" stroke-miterlimit="10" stroke-dasharray="3.86719 6.38086" fill="none" fill-rule="evenodd"/><path d="M3093.5 1620.5 3101.5 1615.5" stroke="#000000" stroke-width="3.4375" stroke-linecap="square" stroke-linejoin="round" stroke-miterlimit="10" fill="none" fill-rule="evenodd"/><path d="M3101.5 1615.5 3108.5 1616.5" stroke="#000000" stroke-width="3.4375" stroke-linejoin="round" stroke-miterlimit="10" stroke-dasharray="3.86719 6.38086" fill="none" fill-rule="evenodd"/><path d="M3108.5 1615.5 3115.5 1595.5" stroke="#000000" stroke-width="3.4375" stroke-linecap="square" stroke-linejoin="round" stroke-miterlimit="10" fill="none" fill-rule="evenodd"/><path d="M3115.5 1595.5 3123.1 1584.43 3130.7 1587.82 3138.3 1570.86 3145.9 1570.5 3153.5 1592.29" stroke="#000000" stroke-width="3.4375" stroke-linejoin="round" stroke-miterlimit="10" stroke-dasharray="3.86719 6.38086" fill="none" fill-rule="evenodd"/><path d="M3153.5 1592.5 3160.5 1584.5" stroke="#000000" stroke-width="3.4375" stroke-linecap="square" stroke-linejoin="round" stroke-miterlimit="10" fill="none" fill-rule="evenodd"/><path d="M3161.5 1582.5 3168.5 1566.7 3175.5 1555.5 3182.5 1569.38" stroke="#000000" stroke-width="3.4375" stroke-linejoin="round" stroke-miterlimit="10" stroke-dasharray="3.86719 6.38086" fill="none" fill-rule="evenodd"/><path d="M3182.5 1569.45 3189.5 1561.5 3196.5 1577.5" stroke="#000000" stroke-width="3.4375" stroke-linecap="square" stroke-linejoin="round" stroke-miterlimit="10" fill="none" fill-rule="evenodd"/><path d="M3196.5 1577.5 3203.5 1557.28 3210.5 1565.25 3217.5 1547.5" stroke="#000000" stroke-width="3.4375" stroke-linejoin="round" stroke-miterlimit="10" stroke-dasharray="3.86719 6.38086" fill="none" fill-rule="evenodd"/><path d="M3217.5 1547.5 3225 1568.6 3232.5 1581.5" stroke="#000000" stroke-width="3.4375" stroke-linecap="square" stroke-linejoin="round" stroke-miterlimit="10" fill="none" fill-rule="evenodd"/><path d="M3232.5 1581.5 3239.5 1596.5" stroke="#000000" stroke-width="3.4375" stroke-linejoin="round" stroke-miterlimit="10" stroke-dasharray="3.86719 6.38086" fill="none" fill-rule="evenodd"/><path d="M3239.5 1596.5 3246.5 1607.5" stroke="#000000" stroke-width="3.4375" stroke-linecap="square" stroke-linejoin="round" stroke-miterlimit="10" fill="none" fill-rule="evenodd"/><path d="M3246.5 1607.5 3253.5 1618.67 3260.5 1618.86 3267.5 1625.5 3274.5 1614.43 3281.5 1619.44" stroke="#000000" stroke-width="3.4375" stroke-linejoin="round" stroke-miterlimit="10" stroke-dasharray="3.86719 6.38086" fill="none" fill-rule="evenodd"/><path d="M3281.5 1619.5 3288.5 1585.85 3295.5 1572.5" stroke="#000000" stroke-width="3.4375" stroke-linecap="square" stroke-linejoin="round" stroke-miterlimit="10" fill="none" fill-rule="evenodd"/><path d="M3295.5 1572.5 3302.5 1570.84 3309.5 1565.5" stroke="#000000" stroke-width="3.4375" stroke-linejoin="round" stroke-miterlimit="10" stroke-dasharray="3.86719 6.38086" fill="none" fill-rule="evenodd"/><path d="M3309.5 1565.5 3317.5 1571.5" stroke="#000000" stroke-width="3.4375" stroke-linecap="square" stroke-linejoin="round" stroke-miterlimit="10" fill="none" fill-rule="evenodd"/><path d="M3327.5 1576.78 3333.25 1582.5 3339 1572.94 3344.75 1575.47 3350.5 1564.5" stroke="#000000" stroke-width="3.4375" stroke-linejoin="round" stroke-miterlimit="10" stroke-dasharray="3.86719 6.38086" fill="none" fill-rule="evenodd"/><path d="M3350.5 1564.5 3355.5 1567.5" stroke="#000000" stroke-width="3.4375" stroke-linecap="square" stroke-linejoin="round" stroke-miterlimit="10" fill="none" fill-rule="evenodd"/><path d="M3355.5 1567.5 3361.5 1571.75 3367.5 1584.5" stroke="#000000" stroke-width="3.4375" stroke-linejoin="round" stroke-miterlimit="10" stroke-dasharray="3.86719 6.38086" fill="none" fill-rule="evenodd"/><path d="M3367.5 1584.5 3373.5 1574.5" stroke="#000000" stroke-width="3.4375" stroke-linecap="square" stroke-linejoin="round" stroke-miterlimit="10" fill="none" fill-rule="evenodd"/><path d="M3373.5 1574.5 3379.5 1559.5" stroke="#000000" stroke-width="3.4375" stroke-linejoin="round" stroke-miterlimit="10" stroke-dasharray="3.86719 6.38086" fill="none" fill-rule="evenodd"/><path d="M3379.5 1559.5 3384.5 1545.5" stroke="#000000" stroke-width="3.4375" stroke-linecap="square" stroke-linejoin="round" stroke-miterlimit="10" fill="none" fill-rule="evenodd"/><path d="M3384.5 1545.5 3390.5 1563.41 3396.5 1563.5" stroke="#000000" stroke-width="3.4375" stroke-linejoin="round" stroke-miterlimit="10" stroke-dasharray="3.86719 6.38086" fill="none" fill-rule="evenodd"/><path d="M3396.5 1563.5 3402.5 1591.5" stroke="#000000" stroke-width="3.4375" stroke-linecap="square" stroke-linejoin="round" stroke-miterlimit="10" fill="none" fill-rule="evenodd"/><path d="M3402.5 1591.5 3408.17 1608.65 3413.83 1616.5 3419.5 1615.24" stroke="#000000" stroke-width="3.4375" stroke-linejoin="round" stroke-miterlimit="10" stroke-dasharray="3.86719 6.38086" fill="none" fill-rule="evenodd"/><path d="M3419.5 1615.5 3425.5 1621.5" stroke="#000000" stroke-width="3.4375" stroke-linecap="square" stroke-linejoin="round" stroke-miterlimit="10" fill="none" fill-rule="evenodd"/><path d="M3425.5 1622.1 3431 1614.5 3436.5 1623.5" stroke="#000000" stroke-width="3.4375" stroke-linejoin="round" stroke-miterlimit="10" stroke-dasharray="3.86719 6.38086" fill="none" fill-rule="evenodd"/><path d="M3436.5 1623.5 3442.5 1593.5" stroke="#000000" stroke-width="3.4375" stroke-linecap="square" stroke-linejoin="round" stroke-miterlimit="10" fill="none" fill-rule="evenodd"/><path d="M3442.5 1593.5 3448.5 1562.5" stroke="#000000" stroke-width="3.4375" stroke-linejoin="round" stroke-miterlimit="10" stroke-dasharray="3.86719 6.38086" fill="none" fill-rule="evenodd"/><path d="M3448.5 1562.5 3454.5 1552.5" stroke="#000000" stroke-width="3.4375" stroke-linecap="square" stroke-linejoin="round" stroke-miterlimit="10" fill="none" fill-rule="evenodd"/><path d="M3454.5 1552.5 3459.5 1559.5" stroke="#000000" stroke-width="3.4375" stroke-linejoin="round" stroke-miterlimit="10" stroke-dasharray="3.86719 6.38086" fill="none" fill-rule="evenodd"/><path d="M3459.5 1559.5 3465.5 1561.5" stroke="#000000" stroke-width="3.4375" stroke-linecap="square" stroke-linejoin="round" stroke-miterlimit="10" fill="none" fill-rule="evenodd"/><path d="M3465.5 1561.5 3471.17 1565.11 3476.83 1574.5 3482.5 1569.28" stroke="#000000" stroke-width="3.4375" stroke-linejoin="round" stroke-miterlimit="10" stroke-dasharray="3.86719 6.38086" fill="none" fill-rule="evenodd"/><path d="M3488.5 1565.5 3496.5 1559.5" stroke="#000000" stroke-width="3.4375" stroke-linecap="square" stroke-linejoin="round" stroke-miterlimit="10" fill="none" fill-rule="evenodd"/><path d="M3496.5 1559.5 3504.5 1565.5" stroke="#000000" stroke-width="3.4375" stroke-linejoin="round" stroke-miterlimit="10" stroke-dasharray="3.86719 6.38086" fill="none" fill-rule="evenodd"/><path d="M3504.5 1565.5 3512.5 1567.5" stroke="#000000" stroke-width="3.4375" stroke-linecap="square" stroke-linejoin="round" stroke-miterlimit="10" fill="none" fill-rule="evenodd"/><path d="M3512.5 1567.08 3520.79 1577.35 3529.07 1562.3 3537.36 1553.72 3545.64 1541.5 3553.93 1563.43 3562.21 1568.13 3570.5 1586.5" stroke="#000000" stroke-width="3.4375" stroke-linejoin="round" stroke-miterlimit="10" stroke-dasharray="3.86719 6.38086" fill="none" fill-rule="evenodd"/><path d="M3570.5 1586.5 3578.5 1598.5" stroke="#000000" stroke-width="3.4375" stroke-linecap="square" stroke-linejoin="round" stroke-miterlimit="10" fill="none" fill-rule="evenodd"/><path d="M3578.5 1598.5 3586.5 1609.5" stroke="#000000" stroke-width="3.4375" stroke-linejoin="round" stroke-miterlimit="10" stroke-dasharray="3.86719 6.38086" fill="none" fill-rule="evenodd"/><path d="M3586.5 1609.5 3595 1611.31 3603.5 1618.5" stroke="#000000" stroke-width="3.4375" stroke-linecap="square" stroke-linejoin="round" stroke-miterlimit="10" fill="none" fill-rule="evenodd"/><path d="M3603.5 1618.5 3611.5 1613.5 3619.5 1615.47 3627.5 1613.85" stroke="#000000" stroke-width="3.4375" stroke-linejoin="round" stroke-miterlimit="10" stroke-dasharray="3.86719 6.38086" fill="none" fill-rule="evenodd"/><path d="M3627.5 1613.5 3636 1614.58 3644.5 1619.5" stroke="#000000" stroke-width="3.4375" stroke-linecap="square" stroke-linejoin="round" stroke-miterlimit="10" fill="none" fill-rule="evenodd"/><path d="M2953.5 1593.33C2953.5 1585.14 2960.14 1578.5 2968.33 1578.5L3109.67 1578.5C3117.86 1578.5 3124.5 1585.14 3124.5 1593.33L3124.5 1652.67C3124.5 1660.86 3117.86 1667.5 3109.67 1667.5L2968.33 1667.5C2960.14 1667.5 2953.5 1660.86 2953.5 1652.67Z" stroke="#000000" stroke-width="6.875" stroke-miterlimit="8" fill="#8FCCFF" fill-rule="evenodd"/><path d="M3122.5 1593.33C3122.5 1585.14 3129.14 1578.5 3137.33 1578.5L3279.67 1578.5C3287.86 1578.5 3294.5 1585.14 3294.5 1593.33L3294.5 1652.67C3294.5 1660.86 3287.86 1667.5 3279.67 1667.5L3137.33 1667.5C3129.14 1667.5 3122.5 1660.86 3122.5 1652.67Z" stroke="#000000" stroke-width="6.875" stroke-miterlimit="8" fill="#8FCCFF" fill-rule="evenodd"/><path d="M3296.5 1593.33C3296.5 1585.14 3303.14 1578.5 3311.33 1578.5L3452.67 1578.5C3460.86 1578.5 3467.5 1585.14 3467.5 1593.33L3467.5 1652.67C3467.5 1660.86 3460.86 1667.5 3452.67 1667.5L3311.33 1667.5C3303.14 1667.5 3296.5 1660.86 3296.5 1652.67Z" stroke="#000000" stroke-width="6.875" stroke-miterlimit="8" fill="#8FCCFF" fill-rule="evenodd"/><path d="M3467.5 1593.33C3467.5 1585.14 3474.14 1578.5 3482.33 1578.5L3623.67 1578.5C3631.86 1578.5 3638.5 1585.14 3638.5 1593.33L3638.5 1652.67C3638.5 1660.86 3631.86 1667.5 3623.67 1667.5L3482.33 1667.5C3474.14 1667.5 3467.5 1660.86 3467.5 1652.67Z" stroke="#000000" stroke-width="6.875" stroke-miterlimit="8" fill="#8FCCFF" fill-rule="evenodd"/><path d="M2966.5 1609.82 2974.17 1618.3 2981.83 1631.5 2989.5 1607.5" stroke="#000000" stroke-width="3.4375" stroke-linecap="square" stroke-linejoin="round" stroke-miterlimit="10" fill="none" fill-rule="evenodd"/><path d="M2989.5 1607.5 2996.5 1596.5" stroke="#000000" stroke-width="3.4375" stroke-linejoin="round" stroke-miterlimit="10" stroke-dasharray="3.86719 6.38086" fill="none" fill-rule="evenodd"/><path d="M2996.5 1596.59 3003.9 1578.5 3011.3 1597.29 3018.7 1610.19 3026.1 1625.12 3033.5 1642.5" stroke="#000000" stroke-width="3.4375" stroke-linecap="square" stroke-linejoin="round" stroke-miterlimit="10" fill="none" fill-rule="evenodd"/><path d="M3033.5 1642.5 3041.5 1651.5" stroke="#000000" stroke-width="3.4375" stroke-linejoin="round" stroke-miterlimit="10" stroke-dasharray="3.86719 6.38086" fill="none" fill-rule="evenodd"/><path d="M3041.5 1651.26 3048.9 1651.35 3056.3 1656.5 3063.7 1651.26 3071.1 1651.35 3078.5 1630.5" stroke="#000000" stroke-width="3.4375" stroke-linecap="square" stroke-linejoin="round" stroke-miterlimit="10" fill="none" fill-rule="evenodd"/><path d="M3078.5 1630.5 3085.83 1619.72 3093.17 1623.02 3100.5 1606.5" stroke="#000000" stroke-width="3.4375" stroke-linejoin="round" stroke-miterlimit="10" stroke-dasharray="3.86719 6.38086" fill="none" fill-rule="evenodd"/><path d="M3100.5 1606.84 3107.83 1606.5 3115.17 1627.5 3122.5 1620.44" stroke="#000000" stroke-width="3.4375" stroke-linecap="square" stroke-linejoin="round" stroke-miterlimit="10" fill="none" fill-rule="evenodd"/><path d="M3121.5 1619.5 3128 1603.7 3134.5 1592.5" stroke="#000000" stroke-width="3.4375" stroke-linejoin="round" stroke-miterlimit="10" stroke-dasharray="3.86719 6.38086" fill="none" fill-rule="evenodd"/><path d="M3134.5 1592.5 3140.5 1606.5 3146.5 1598.68" stroke="#000000" stroke-width="3.4375" stroke-linecap="square" stroke-linejoin="round" stroke-miterlimit="10" fill="none" fill-rule="evenodd"/><path d="M3146.5 1598.19 3153 1613.5 3159.5 1593.5" stroke="#000000" stroke-width="3.4375" stroke-linejoin="round" stroke-miterlimit="10" stroke-dasharray="3.86719 6.38086" fill="none" fill-rule="evenodd"/><path d="M3159.5 1594.16 3165.83 1602.03 3172.17 1584.5 3178.5 1605.5" stroke="#000000" stroke-width="3.4375" stroke-linecap="square" stroke-linejoin="round" stroke-miterlimit="10" fill="none" fill-rule="evenodd"/><path d="M3178.5 1605.5 3184.5 1618.5" stroke="#000000" stroke-width="3.4375" stroke-linejoin="round" stroke-miterlimit="10" stroke-dasharray="3.86719 6.38086" fill="none" fill-rule="evenodd"/><path d="M3184.5 1618.5 3190.5 1633.13 3196.5 1644.5" stroke="#000000" stroke-width="3.4375" stroke-linecap="square" stroke-linejoin="round" stroke-miterlimit="10" fill="none" fill-rule="evenodd"/><path d="M3196.5 1644.5 3203.5 1655.5" stroke="#000000" stroke-width="3.4375" stroke-linejoin="round" stroke-miterlimit="10" stroke-dasharray="3.86719 6.38086" fill="none" fill-rule="evenodd"/><path d="M3203.5 1655.5 3209.5 1655.7 3215.5 1662.5" stroke="#000000" stroke-width="3.4375" stroke-linecap="square" stroke-linejoin="round" stroke-miterlimit="10" fill="none" fill-rule="evenodd"/><path d="M3215.5 1662.5 3221.5 1651.5" stroke="#000000" stroke-width="3.4375" stroke-linejoin="round" stroke-miterlimit="10" stroke-dasharray="3.86719 6.38086" fill="none" fill-rule="evenodd"/><path d="M3221.5 1651.5 3228.5 1656.5" stroke="#000000" stroke-width="3.4375" stroke-linecap="square" stroke-linejoin="round" stroke-miterlimit="10" fill="none" fill-rule="evenodd"/><path d="M3228.5 1656.5 3234.5 1622.5" stroke="#000000" stroke-width="3.4375" stroke-linejoin="round" stroke-miterlimit="10" stroke-dasharray="3.86719 6.38086" fill="none" fill-rule="evenodd"/><path d="M3234.5 1622.5 3240.5 1609.5" stroke="#000000" stroke-width="3.4375" stroke-linecap="square" stroke-linejoin="round" stroke-miterlimit="10" fill="none" fill-rule="evenodd"/><path d="M3240.5 1609.5 3246.5 1607.5" stroke="#000000" stroke-width="3.4375" stroke-linejoin="round" stroke-miterlimit="10" stroke-dasharray="3.86719 6.38086" fill="none" fill-rule="evenodd"/><path d="M3246.5 1607.14 3253 1601.5 3259.5 1608.5" stroke="#000000" stroke-width="3.4375" stroke-linecap="square" stroke-linejoin="round" stroke-miterlimit="10" fill="none" fill-rule="evenodd"/><path d="M3259.5 1608.5 3265.5 1614.5" stroke="#000000" stroke-width="3.4375" stroke-linejoin="round" stroke-miterlimit="10" stroke-dasharray="3.86719 6.38086" fill="none" fill-rule="evenodd"/><path d="M3265.5 1614.5 3271.5 1604.5" stroke="#000000" stroke-width="3.4375" stroke-linecap="square" stroke-linejoin="round" stroke-miterlimit="10" fill="none" fill-rule="evenodd"/><path d="M3271.5 1604.5 3277.5 1607.5" stroke="#000000" stroke-width="3.4375" stroke-linejoin="round" stroke-miterlimit="10" stroke-dasharray="3.86719 6.38086" fill="none" fill-rule="evenodd"/><path d="M3270.5 1612.5 3278.5 1600.5" stroke="#000000" stroke-width="3.4375" stroke-linecap="square" stroke-linejoin="round" stroke-miterlimit="10" fill="none" fill-rule="evenodd"/><path d="M3278.5 1600.5 3287.5 1603.94 3296.5 1608.5" stroke="#000000" stroke-width="3.4375" stroke-linejoin="round" stroke-miterlimit="10" stroke-dasharray="3.86719 6.38086" fill="none" fill-rule="evenodd"/><path d="M3296.5 1608.5 3304.5 1621.5" stroke="#000000" stroke-width="3.4375" stroke-linecap="square" stroke-linejoin="round" stroke-miterlimit="10" fill="none" fill-rule="evenodd"/><path d="M3304.5 1621.5 3313.5 1610.5" stroke="#000000" stroke-width="3.4375" stroke-linejoin="round" stroke-miterlimit="10" stroke-dasharray="3.86719 6.38086" fill="none" fill-rule="evenodd"/><path d="M3313.5 1610.5 3322.25 1596.15 3331 1581.5 3339.75 1600.05 3348.5 1600.15" stroke="#000000" stroke-width="3.4375" stroke-linecap="square" stroke-linejoin="round" stroke-miterlimit="10" fill="none" fill-rule="evenodd"/><path d="M3348.5 1600.5 3357 1628.41 3365.5 1645.5" stroke="#000000" stroke-width="3.4375" stroke-linejoin="round" stroke-miterlimit="10" stroke-dasharray="3.86719 6.38086" fill="none" fill-rule="evenodd"/><path d="M3365.5 1645.5 3374 1653.5 3382.5 1652.22" stroke="#000000" stroke-width="3.4375" stroke-linecap="square" stroke-linejoin="round" stroke-miterlimit="10" fill="none" fill-rule="evenodd"/><path d="M3382.5 1651.5 3391.5 1658.5" stroke="#000000" stroke-width="3.4375" stroke-linejoin="round" stroke-miterlimit="10" stroke-dasharray="3.86719 6.38086" fill="none" fill-rule="evenodd"/><path d="M3391.5 1658.15 3400.17 1650.79 3408.83 1659.5 3417.5 1629.5" stroke="#000000" stroke-width="3.4375" stroke-linecap="square" stroke-linejoin="round" stroke-miterlimit="10" fill="none" fill-rule="evenodd"/><path d="M3417.5 1629.5 3426.5 1599.5" stroke="#000000" stroke-width="3.4375" stroke-linejoin="round" stroke-miterlimit="10" stroke-dasharray="3.86719 6.38086" fill="none" fill-rule="evenodd"/><path d="M3431.5 1597.4 3435 1589.5 3438.5 1595.25 3442 1596.48 3445.5 1599.39 3449 1606.98 3452.5 1602.77 3456 1597.32 3459.5 1603.15 3463 1604.76 3466.5 1614.5" stroke="#000000" stroke-width="3.4375" stroke-linecap="square" stroke-linejoin="round" stroke-miterlimit="10" fill="none" fill-rule="evenodd"/><path d="M3468.5 1617.5 3479.5 1601.5" stroke="#000000" stroke-width="3.4375" stroke-linejoin="round" stroke-miterlimit="10" stroke-dasharray="3.86719 6.38086" fill="none" fill-rule="evenodd"/><path d="M3479.5 1601.5 3490.5 1593.5" stroke="#000000" stroke-width="3.4375" stroke-linecap="square" stroke-linejoin="round" stroke-miterlimit="10" fill="none" fill-rule="evenodd"/><path d="M3490.5 1592.76 3501 1580.5 3511.5 1602.5" stroke="#000000" stroke-width="3.4375" stroke-linejoin="round" stroke-miterlimit="10" stroke-dasharray="3.86719 6.38086" fill="none" fill-rule="evenodd"/><path d="M3511.5 1602.5 3522.33 1607.26 3533.17 1625.87 3544 1637.51 3554.83 1648.74 3565.67 1650.71 3576.5 1658.5" stroke="#000000" stroke-width="3.4375" stroke-linecap="square" stroke-linejoin="round" stroke-miterlimit="10" fill="none" fill-rule="evenodd"/><path d="M3576.5 1658.5 3587.5 1653.5" stroke="#000000" stroke-width="3.4375" stroke-linejoin="round" stroke-miterlimit="10" stroke-dasharray="3.86719 6.38086" fill="none" fill-rule="evenodd"/><path d="M2845.5 1021C2845.5 1006.36 2857.36 994.5 2872 994.5L3697 994.5C3711.64 994.5 3723.5 1006.36 3723.5 1021L3723.5 1127C3723.5 1141.64 3711.64 1153.5 3697 1153.5L2872 1153.5C2857.36 1153.5 2845.5 1141.64 2845.5 1127Z" stroke="#000000" stroke-width="6.875" stroke-miterlimit="8" fill="#92C5DE" fill-rule="evenodd" fill-opacity="0.568627"/><text font-family="Arial,Arial_MSFontService,sans-serif" font-weight="700" font-size="48" transform="matrix(1 0 0 1 3233.26 1091)">PLM</text><path d="M3010.5 1447C3010.5 1441.2 3015.2 1436.5 3021 1436.5L3585 1436.5C3590.8 1436.5 3595.5 1441.2 3595.5 1447L3595.5 1489C3595.5 1494.8 3590.8 1499.5 3585 1499.5L3021 1499.5C3015.2 1499.5 3010.5 1494.8 3010.5 1489Z" stroke="#000000" stroke-width="4.58333" stroke-miterlimit="8" fill="#FEE99D" fill-rule="evenodd" fill-opacity="0.470588"/><text font-family="Arial,Arial_MSFontService,sans-serif" font-weight="700" font-size="41" transform="matrix(1 0 0 1 3129.31 1482)">Embedding </text><text font-family="Arial,Arial_MSFontService,sans-serif" font-weight="700" font-size="41" transform="matrix(1 0 0 1 3365.35 1482)">Layer</text><path d="M2949.5 1827.67C2949.5 1817.08 2958.08 1808.5 2968.67 1808.5L3645.33 1808.5C3655.92 1808.5 3664.5 1817.08 3664.5 1827.67L3664.5 1904.33C3664.5 1914.92 3655.92 1923.5 3645.33 1923.5L2968.67 1923.5C2958.08 1923.5 2949.5 1914.92 2949.5 1904.33Z" stroke="#000000" stroke-width="6.875" stroke-miterlimit="8" fill="none" fill-rule="evenodd"/><path d="M2987.5 1860.7 2994.29 1868.12 3001.08 1879.69 3007.87 1858.67 3014.66 1848.98 3021.45 1832.89 3028.24 1849.61 3035.03 1861.09 3041.82 1874.38 3048.61 1889.84 3055.39 1897.19 3062.18 1897.27 3068.97 1901.72 3075.76 1897.19 3082.55 1897.27 3089.34 1879.22 3096.13 1869.53 3102.92 1872.5 3109.71 1857.66 3116.5 1857.34 3123.29 1876.41 3130.08 1870 3136.87 1857.11 3143.66 1847.97 3150.45 1859.3 3157.24 1852.97 3164.03 1865.7 3170.82 1849.06 3177.61 1855.62 3184.39 1841.02 3191.18 1858.52 3197.97 1869.22 3204.76 1881.48 3211.55 1891.02 3218.34 1900.08 3225.13 1900.23 3231.92 1905.62 3238.71 1896.64 3245.5 1900.7 3252.29 1872.73 3259.08 1861.64 3265.87 1860.23 3272.66 1855.7 3279.45 1861.33 3286.24 1866.09 3293.03 1858.12 3299.82 1860.23 3306.61 1851.09 3313.39 1853.75 3320.18 1857.27 3326.97 1867.81 3333.76 1858.98 3340.55 1847.5 3347.34 1835.78 3354.13 1850.62 3360.92 1850.7 3367.71 1873.28 3374.5 1887.11 3381.29 1893.44 3388.08 1892.42 3394.87 1897.58 3401.66 1891.64 3408.45 1898.67 3415.24 1874.45 3422.03 1849.69 3428.82 1841.64 3435.61 1847.5 3442.39 1848.75 3449.18 1851.72 3455.97 1859.45 3462.76 1855.16 3469.55 1849.61 3476.34 1855.55 3483.13 1857.19 3489.92 1867.11 3496.71 1852.58 3503.5 1844.3 3510.29 1832.5 3517.08 1853.67 3523.87 1858.2 3530.66 1875.94 3537.45 1887.03 3544.24 1897.73 3551.03 1899.61 3557.82 1907.03 3564.61 1901.48 3571.39 1903.67 3578.18 1901.88 3584.97 1902.89 3591.76 1907.5 3598.55 1904.06 3605.34 1897.11 3612.13 1895.62 3618.92 1886.17 3625.71 1885 3632.5 1890.23" stroke="#000000" stroke-width="4.58333" stroke-linecap="square" stroke-linejoin="round" stroke-miterlimit="10" fill="none" fill-rule="evenodd"/><path d="M2.29167-2.12191e-05 2.29184 18.3333-2.2915 18.3334-2.29167 2.12191e-05ZM9.16686 20.643 0.000360892 38.9764-9.16648 20.6431Z" transform="matrix(1 0 0 -1 3295.5 1706.48)"/><path d="M3122.5 1318.33C3122.5 1310.14 3129.14 1303.5 3137.33 1303.5L3278.67 1303.5C3286.86 1303.5 3293.5 1310.14 3293.5 1318.33L3293.5 1377.67C3293.5 1385.86 3286.86 1392.5 3278.67 1392.5L3137.33 1392.5C3129.14 1392.5 3122.5 1385.86 3122.5 1377.67Z" stroke="#000000" stroke-width="6.875" stroke-miterlimit="8" fill="#8FCCFF" fill-rule="evenodd"/><path d="M3291.5 1318.33C3291.5 1310.14 3298.14 1303.5 3306.33 1303.5L3447.67 1303.5C3455.86 1303.5 3462.5 1310.14 3462.5 1318.33L3462.5 1377.67C3462.5 1385.86 3455.86 1392.5 3447.67 1392.5L3306.33 1392.5C3298.14 1392.5 3291.5 1385.86 3291.5 1377.67Z" stroke="#000000" stroke-width="6.875" stroke-miterlimit="8" fill="#8FCCFF" fill-rule="evenodd"/><path d="M3464.5 1318.33C3464.5 1310.14 3471.14 1303.5 3479.33 1303.5L3621.67 1303.5C3629.86 1303.5 3636.5 1310.14 3636.5 1318.33L3636.5 1377.67C3636.5 1385.86 3629.86 1392.5 3621.67 1392.5L3479.33 1392.5C3471.14 1392.5 3464.5 1385.86 3464.5 1377.67Z" stroke="#000000" stroke-width="6.875" stroke-miterlimit="8" fill="#8FCCFF" fill-rule="evenodd"/><path d="M3635.5 1318.33C3635.5 1310.14 3642.14 1303.5 3650.33 1303.5L3792.67 1303.5C3800.86 1303.5 3807.5 1310.14 3807.5 1318.33L3807.5 1377.67C3807.5 1385.86 3800.86 1392.5 3792.67 1392.5L3650.33 1392.5C3642.14 1392.5 3635.5 1385.86 3635.5 1377.67Z" stroke="#000000" stroke-width="6.875" stroke-miterlimit="8" fill="#8FCCFF" fill-rule="evenodd"/><path d="M3157.77 1298.49C3155.33 1284.78 3166.36 1271.36 3182.39 1268.52L3277.56 1251.62C3293.59 1248.78 3304.62 1235.36 3302.18 1221.65 3304.62 1235.36 3319.59 1244.16 3335.62 1241.32L3402.82 1229.39C3418.85 1226.54 3433.82 1235.35 3436.26 1249.05" stroke="#A6A6A6" stroke-width="6.875" stroke-miterlimit="8" fill="none" fill-rule="evenodd"/><path d="M3284.5 1208.5C3284.5 1199.11 3292.11 1191.5 3301.5 1191.5 3310.89 1191.5 3318.5 1199.11 3318.5 1208.5 3318.5 1217.89 3310.89 1225.5 3301.5 1225.5 3292.11 1225.5 3284.5 1217.89 3284.5 1208.5Z" stroke="#000000" stroke-width="3.4375" stroke-miterlimit="8" fill="none" fill-rule="evenodd"/><text font-family="Microsoft YaHei,Microsoft YaHei_MSFontService,sans-serif" font-weight="400" font-size="37" transform="matrix(1 0 0 1 3287.95 1221)">+</text><path d="M2.29167-2.12191e-05 2.2919 25.2264-2.29143 25.2264-2.29167 2.12191e-05ZM9.16686 20.643 0.000360892 38.9764-9.16648 20.6431Z" transform="matrix(1 0 0 -1 3295.5 1538.48)"/><path d="M2.29167-2.12191e-05 2.2919 25.2264-2.29143 25.2264-2.29167 2.12191e-05ZM9.16686 20.643 0.000360892 38.9764-9.16648 20.6431Z" transform="matrix(1 0 0 -1 3295.5 1432.48)"/><path d="M2.29167-2.12191e-05 2.2919 25.2264-2.29143 25.2264-2.29167 2.12191e-05ZM9.16686 20.643 0.000360892 38.9764-9.16648 20.6431Z" transform="matrix(1 0 0 -1 3301.5 1191.48)"/><path d="M2949.5 740.5C2949.5 730.007 2958.01 721.5 2968.5 721.5L3645.5 721.5C3655.99 721.5 3664.5 730.007 3664.5 740.5L3664.5 816.5C3664.5 826.993 3655.99 835.5 3645.5 835.5L2968.5 835.5C2958.01 835.5 2949.5 826.993 2949.5 816.5Z" stroke="#000000" stroke-width="6.875" stroke-miterlimit="8" stroke-dasharray="27.5 20.625" fill="#FFFFFF" fill-rule="evenodd"/><path d="M2987.5 772.703 2994.29 780.125 3001.08 791.688 3007.87 770.672 3014.66 760.984 3021.45 744.891 3028.24 761.609 3035.03 773.094 3041.82 786.375 3048.61 801.844 3055.39 809.188 3062.18 809.266 3068.97 813.719 3075.76 809.188 3082.55 809.266 3089.34 791.219 3096.13 781.531 3102.92 784.5 3109.71 769.656 3116.5 769.344 3123.29 788.406 3130.08 782 3136.87 769.109 3143.66 759.969 3150.45 771.297 3157.24 764.969 3164.03 777.703 3170.82 761.063 3177.61 767.625 3184.39 753.016 3191.18 770.516 3197.97 781.219 3204.76 793.484 3211.55 803.016 3218.34 812.078 3225.13 812.234 3231.92 817.625 3238.71 808.641 3245.5 812.703 3252.29 784.734 3259.08 773.641 3265.87 772.234 3272.66 767.703 3279.45 773.328 3286.24 778.094 3293.03 770.125 3299.82 772.234 3306.61 763.094 3313.39 765.75 3320.18 769.266 3326.97 779.813 3333.76 770.984 3340.55 759.5 3347.34 747.781 3354.13 762.625 3360.92 762.703 3367.71 785.281 3374.5 799.109 3381.29 805.438 3388.08 804.422 3394.87 809.578 3401.66 803.641 3408.45 810.672 3415.24 786.453 3422.03 761.688 3428.82 753.641 3435.61 759.5 3442.39 760.75 3449.18 763.719 3455.97 771.453 3462.76 767.156 3469.55 761.609 3476.34 767.547 3483.13 769.188 3489.92 779.109 3496.71 764.578 3503.5 756.297 3510.29 744.5 3517.08 765.672 3523.87 770.203 3530.66 787.938 3537.45 799.031 3544.24 809.734 3551.03 811.609 3557.82 819.031 3564.61 813.484 3571.39 815.672 3578.18 813.875 3584.97 814.891 3591.76 819.5 3598.55 816.062 3605.34 809.109 3612.13 807.625 3618.92 798.172 3625.71 797 3632.5 802.234" stroke="#8FCCFF" stroke-width="4.58333" stroke-linecap="square" stroke-linejoin="round" stroke-miterlimit="10" fill="#FFFFFF" fill-rule="evenodd"/><path d="M3054.5 902.334C3054.5 896.35 3059.35 891.5 3065.33 891.5L3520.67 891.5C3526.65 891.5 3531.5 896.35 3531.5 902.334L3531.5 945.666C3531.5 951.65 3526.65 956.5 3520.67 956.5L3065.33 956.5C3059.35 956.5 3054.5 951.65 3054.5 945.666Z" stroke="#000000" stroke-width="6.875" stroke-miterlimit="8" fill="#FFFFFF" fill-rule="evenodd"/><text font-family="Arial,Arial_MSFontService,sans-serif" font-weight="700" font-size="41" transform="matrix(1 0 0 1 3163.82 939)">Output Layer</text><text font-family="Arial,Arial_MSFontService,sans-serif" font-weight="400" font-size="37" transform="matrix(1 0 0 1 3668.83 1663)">Mask Ratio1</text><text font-family="Arial,Arial_MSFontService,sans-serif" font-weight="700" font-size="37" transform="matrix(1 0 0 1 3881.09 1451)">calculate</text><path d="M1.71875-1.59144e-05 1.71888 13.75-1.71862 13.75-1.71875 1.59144e-05ZM1.71897 24.0625 1.71898 25.2264-1.71852 25.2264-1.71853 24.0625ZM9.16686 20.643 0.000360892 38.9764-9.16648 20.6431Z" transform="matrix(0.906308 0.422618 0.422618 -0.906308 3308.36 1705.72)"/><path d="M3764.5 940C3764.5 931.992 3770.99 925.5 3779 925.5L4068 925.5C4076.01 925.5 4082.5 931.992 4082.5 940L4082.5 998C4082.5 1006.01 4076.01 1012.5 4068 1012.5L3779 1012.5C3770.99 1012.5 3764.5 1006.01 3764.5 998Z" stroke="#000000" stroke-width="6.875" stroke-miterlimit="8" fill="#FEFFBF" fill-rule="evenodd"/><text font-family="Arial,Arial_MSFontService,sans-serif" font-weight="400" font-size="37" transform="matrix(1 0 0 1 3867.75 960)">Output </text><text font-family="Arial,Arial_MSFontService,sans-serif" font-weight="400" font-size="37" transform="matrix(1 0 0 1 3820.77 1004)">Embeddings</text><path d="M3764.5 1157C3764.5 1148.99 3770.99 1142.5 3779 1142.5L4068 1142.5C4076.01 1142.5 4082.5 1148.99 4082.5 1157L4082.5 1215C4082.5 1223.01 4076.01 1229.5 4068 1229.5L3779 1229.5C3770.99 1229.5 3764.5 1223.01 3764.5 1215Z" stroke="#000000" stroke-width="6.875" stroke-miterlimit="8" fill="#8FCCFF" fill-rule="evenodd"/><text font-family="Arial,Arial_MSFontService,sans-serif" font-weight="400" font-size="37" transform="matrix(1 0 0 1 3867.75 1177)">Output </text><text font-family="Arial,Arial_MSFontService,sans-serif" font-weight="400" font-size="37" transform="matrix(1 0 0 1 3820.77 1221)">Embeddings</text><path d="M3780.5 1057C3780.5 1051.2 3785.2 1046.5 3791 1046.5L4049 1046.5C4054.8 1046.5 4059.5 1051.2 4059.5 1057L4059.5 1099C4059.5 1104.8 4054.8 1109.5 4049 1109.5L3791 1109.5C3785.2 1109.5 3780.5 1104.8 3780.5 1099Z" stroke="#000000" stroke-width="6.875" stroke-miterlimit="8" fill="none" fill-rule="evenodd"/><text font-family="Arial,Arial_MSFontService,sans-serif" font-weight="400" font-size="37" transform="matrix(1 0 0 1 3826.51 1091)">Contrastive </text><path d="M2.29167-2.5463e-05 2.29187 18.7303-2.29146 18.7303-2.29167 2.5463e-05ZM9.16682 14.1469 0.000360892 32.4803-9.16651 14.1471Z" transform="matrix(1 0 0 -1 3918.5 1141.98)"/><path d="M2.29167-2.5463e-05 2.29187 18.7303-2.29146 18.7303-2.29167 2.5463e-05ZM9.16682 14.1469 0.000360892 32.4803-9.16651 14.1471Z" transform="matrix(-1 1.22465e-16 1.22465e-16 1 3918.5 1013.5)"/><path d="M0.0173302-2.2916 38.2362-2.00257 38.2016 2.58063-0.0173302 2.2916ZM33.705-8.91203 51.9685 0.393012 33.5664 9.42078Z" transform="matrix(1 0 0 -1 3726.5 1076.89)"/><path d="M2.29167-2.12191e-05 2.2919 25.2264-2.29143 25.2264-2.29167 2.12191e-05ZM9.16686 20.643 0.000360892 38.9764-9.16648 20.6431Z" transform="matrix(1 0 0 -1 3300.5 994.477)"/><path d="M2778.5 1319.33C2778.5 1311.14 2785.14 1304.5 2793.33 1304.5L2935.67 1304.5C2943.86 1304.5 2950.5 1311.14 2950.5 1319.33L2950.5 1378.67C2950.5 1386.86 2943.86 1393.5 2935.67 1393.5L2793.33 1393.5C2785.14 1393.5 2778.5 1386.86 2778.5 1378.67Z" stroke="#000000" stroke-width="6.875" stroke-miterlimit="8" fill="#DEEBF7" fill-rule="evenodd"/><path d="M2950.5 1318.33C2950.5 1310.14 2957.14 1303.5 2965.33 1303.5L3106.67 1303.5C3114.86 1303.5 3121.5 1310.14 3121.5 1318.33L3121.5 1377.67C3121.5 1385.86 3114.86 1392.5 3106.67 1392.5L2965.33 1392.5C2957.14 1392.5 2950.5 1385.86 2950.5 1377.67Z" stroke="#000000" stroke-width="6.875" stroke-miterlimit="8" fill="#8CCE48" fill-rule="evenodd" fill-opacity="0.670588"/><path d="M2768.5 1975.33C2768.5 1967.14 2775.14 1960.5 2783.33 1960.5L2924.67 1960.5C2932.86 1960.5 2939.5 1967.14 2939.5 1975.33L2939.5 2034.67C2939.5 2042.86 2932.86 2049.5 2924.67 2049.5L2783.33 2049.5C2775.14 2049.5 2768.5 2042.86 2768.5 2034.67Z" stroke="#000000" stroke-width="6.875" stroke-miterlimit="8" fill="#8FCCFF" fill-rule="evenodd"/><text font-family="Arial,Arial_MSFontService,sans-serif" font-weight="400" font-size="37" transform="matrix(1 0 0 1 2790.74 2094)">Embed </text><text font-family="Arial,Arial_MSFontService,sans-serif" font-weight="400" font-size="37" transform="matrix(1 0 0 1 2787.58 2138)">Patches</text><path d="M3872.5 1975.33C3872.5 1967.14 3879.14 1960.5 3887.33 1960.5L4029.67 1960.5C4037.86 1960.5 4044.5 1967.14 4044.5 1975.33L4044.5 2034.67C4044.5 2042.86 4037.86 2049.5 4029.67 2049.5L3887.33 2049.5C3879.14 2049.5 3872.5 2042.86 3872.5 2034.67Z" stroke="#000000" stroke-width="6.875" stroke-miterlimit="8" fill="#FFDDDC" fill-rule="evenodd"/><text font-family="Arial,Arial_MSFontService,sans-serif" font-weight="400" font-size="37" transform="matrix(1 0 0 1 3902.74 2093)">Missing </text><text font-family="Arial,Arial_MSFontService,sans-serif" font-weight="400" font-size="37" transform="matrix(1 0 0 1 3867.52 2137)">Embeddings</text><path d="M3599.5 1975.33C3599.5 1967.14 3606.14 1960.5 3614.33 1960.5L3756.67 1960.5C3764.86 1960.5 3771.5 1967.14 3771.5 1975.33L3771.5 2034.67C3771.5 2042.86 3764.86 2049.5 3756.67 2049.5L3614.33 2049.5C3606.14 2049.5 3599.5 2042.86 3599.5 2034.67Z" stroke="#000000" stroke-width="6.875" stroke-miterlimit="8" fill="#F4FBD3" fill-rule="evenodd"/><text font-family="Arial,Arial_MSFontService,sans-serif" font-weight="400" font-size="37" transform="matrix(1 0 0 1 3600.61 2093)">Patch</text><text font-family="Arial,Arial_MSFontService,sans-serif" font-weight="400" font-size="37" transform="matrix(1 0 0 1 3695.14 2093)">-</text><text font-family="Arial,Arial_MSFontService,sans-serif" font-weight="400" font-size="37" transform="matrix(1 0 0 1 3707.17 2093)">wise </text><text font-family="Arial,Arial_MSFontService,sans-serif" font-weight="400" font-size="37" transform="matrix(1 0 0 1 3611.77 2137)">Statistical </text><text font-family="Arial,Arial_MSFontService,sans-serif" font-weight="400" font-size="37" transform="matrix(1 0 0 1 3593.16 2181)">Embeddings</text><path d="M3334.5 1975.33C3334.5 1967.14 3341.14 1960.5 3349.33 1960.5L3491.67 1960.5C3499.86 1960.5 3506.5 1967.14 3506.5 1975.33L3506.5 2034.67C3506.5 2042.86 3499.86 2049.5 3491.67 2049.5L3349.33 2049.5C3341.14 2049.5 3334.5 2042.86 3334.5 2034.67Z" stroke="#000000" stroke-width="6.875" stroke-miterlimit="8" fill="#B2DE84" fill-rule="evenodd"/><text font-family="Arial,Arial_MSFontService,sans-serif" font-weight="400" font-size="37" transform="matrix(1 0 0 1 3340.24 2093)">Series</text><text font-family="Arial,Arial_MSFontService,sans-serif" font-weight="400" font-size="37" transform="matrix(1 0 0 1 3444.52 2093)">-</text><text font-family="Arial,Arial_MSFontService,sans-serif" font-weight="400" font-size="37" transform="matrix(1 0 0 1 3456.55 2093)">wise</text><text font-family="Arial,Arial_MSFontService,sans-serif" font-weight="400" font-size="37" transform="matrix(1 0 0 1 3351.13 2137)">Statistical </text><text font-family="Arial,Arial_MSFontService,sans-serif" font-weight="400" font-size="37" transform="matrix(1 0 0 1 3332.52 2181)">Embeddings</text><path d="M3052.5 1975.33C3052.5 1967.14 3059.14 1960.5 3067.33 1960.5L3208.67 1960.5C3216.86 1960.5 3223.5 1967.14 3223.5 1975.33L3223.5 2034.67C3223.5 2042.86 3216.86 2049.5 3208.67 2049.5L3067.33 2049.5C3059.14 2049.5 3052.5 2042.86 3052.5 2034.67Z" stroke="#000000" stroke-width="6.875" stroke-miterlimit="8" fill="#DEEBF7" fill-rule="evenodd"/><text font-family="Arial,Arial_MSFontService,sans-serif" font-weight="400" font-size="37" transform="matrix(1 0 0 1 3009.54 2093)">Domain</text><text font-family="Arial,Arial_MSFontService,sans-serif" font-weight="400" font-size="37" transform="matrix(1 0 0 1 3136.16 2093)">-</text><text font-family="Arial,Arial_MSFontService,sans-serif" font-weight="400" font-size="37" transform="matrix(1 0 0 1 3148.19 2093)">Specific</text><text font-family="Arial,Arial_MSFontService,sans-serif" font-weight="400" font-size="37" transform="matrix(1 0 0 1 3044.79 2137)">Embedding </text><path d="M0.0129104-1.14576 9.179-1.04248 9.15317 1.24904-0.0129104 1.14576ZM16.0536-0.965014 19.3084-0.928338 25.2421-0.730186 25.1656 1.5602 19.2446 1.36247 19.27 1.36304 16.0277 1.32651ZM32.1132-0.500725 38.5786-0.284813 41.2969-0.135304 41.171 2.1529 38.4651 2.00407 38.4898 2.00516 32.0367 1.78967ZM48.1615 0.242263 57.3143 0.745687 57.1885 3.03389 48.0357 2.53047ZM64.1942 1.26029 73.3344 1.95687 73.1602 4.24191 64.0201 3.54533ZM80.2072 2.55085 89.3309 3.43715 89.1093 5.71808 79.9856 4.83178ZM96.1962 4.11263 105.3 5.18609 105.031 7.46199 95.9278 6.38853ZM112.128 5.99117 114.53 6.27448 121.238 7.27396 120.901 9.5406 114.21 8.5437 114.244 8.54833 111.859 8.26707ZM128.038 8.28708 137.105 9.63791 136.767 11.9046 127.701 10.5537ZM143.905 10.651 151.284 11.7505 152.998 12.0598 152.591 14.315 150.895 14.0089 150.929 14.0146 143.567 12.9177ZM159.763 13.2812 168.784 14.9098 168.377 17.165 159.356 15.5364ZM175.548 16.266 184.533 18.0807 184.08 20.327 175.094 18.5124ZM191.276 19.5396 200.221 21.5426 199.72 23.7789 190.775 21.7759ZM206.94 23.1118 215.84 25.3065 215.291 27.5315 206.391 25.3368ZM222.53 26.9947 231.379 29.386 230.781 31.5983 221.932 29.2071ZM238.037 31.2038 246.829 33.7975 246.18 35.9955 237.388 33.4018ZM253.447 35.7576 262.174 38.5615 261.473 40.7433 252.746 37.9395ZM268.745 40.6793 277.399 43.7027 276.643 45.8661 267.989 42.8427ZM283.912 45.9969 292.482 49.2513 291.668 51.3937 283.099 48.1393ZM298.923 51.7452 307.396 55.2442 306.521 57.3623 298.049 53.8633ZM313.747 57.9665 322.107 61.7265 321.167 63.8165 312.807 60.0565ZM328.341 64.7131 336.075 68.5103 336.598 68.7917 335.512 70.8099 335.008 70.5386 335.045 70.558 327.331 66.7702ZM342.652 72.0492 347.486 74.6498 350.69 76.5488 349.522 78.5203 346.338 76.6334 346.379 76.6567 341.566 74.0673ZM356.605 80.0534 358.109 80.9445 364.354 85.0471 363.095 86.9624 356.873 82.8744 356.918 82.9025 355.437 82.025ZM370.069 88.9708 376.844 93.95 377.481 94.4794 376.015 96.2411 375.405 95.7337 375.459 95.7762 368.712 90.8174ZM382.766 98.8764 384.882 100.637 389.573 105.126 387.989 106.782 383.326 102.32 383.386 102.373 381.3 100.638ZM394.396 110.148 398.109 114.326 400.286 117.299 398.437 118.653 396.292 115.723 396.36 115.807 392.683 111.67ZM404.234 123.071 407.276 128.367 408.504 131.33 406.387 132.207 405.187 129.313 405.252 129.445 402.247 124.213ZM410.849 137.952 412.039 142.678 412.418 147.141 410.134 147.335 409.763 142.964 409.794 143.147 408.627 138.512ZM412.504 154.14 412.407 156.992 411.768 163.349 409.487 163.12 410.123 156.8 410.118 156.876 410.213 154.062ZM410.678 170.21 410.526 171.13 408.917 178.138 408.586 179.273 406.386 178.629 406.708 177.527 406.691 177.593 408.285 170.651 408.271 170.72 408.417 169.836ZM406.59 185.918 404.442 191.966 403.359 194.56 401.244 193.677 402.315 191.112 402.293 191.17 404.43 185.151ZM400.573 200.908 398.385 205.464 396.291 209.102 394.305 207.959 396.378 204.357 396.338 204.433 398.507 199.916ZM392.861 215.061 390.89 218.483 387.813 222.829 385.943 221.505 388.989 217.203 388.931 217.293 390.875 213.917ZM383.84 228.44 382.059 230.956 378.051 235.668 376.306 234.183 380.28 229.51 380.218 229.59 381.97 227.116ZM373.597 240.905 372.018 242.76 367.169 247.567 365.556 245.939 370.371 241.167 370.304 241.238 371.851 239.42ZM362.285 252.406 360.891 253.788 355.298 258.478 353.826 256.722 359.382 252.063 359.311 252.127 360.672 250.778ZM350.03 262.895 348.795 263.931 342.549 268.346 341.226 266.474 347.433 262.087 347.359 262.145 348.558 261.139ZM336.934 272.314 335.851 273.08 329.012 277.104 327.849 275.129 334.648 271.129 334.567 271.181 335.612 270.443ZM323.086 280.591 322.179 281.125 314.771 284.669 313.782 282.601 321.146 279.079 321.059 279.125 321.924 278.616ZM308.569 287.635 307.898 287.956 299.91 290.935 299.109 288.787 307.049 285.827 306.955 285.867 307.58 285.568ZM293.468 293.337 293.14 293.459 285.596 295.685 284.54 295.942 283.999 293.715 285.027 293.465 284.974 293.479 292.453 291.272 292.377 291.298 292.667 291.189ZM277.802 297.57 270.314 298.998 268.726 299.217 268.414 296.947 269.973 296.732 269.914 296.742 277.373 295.319ZM261.85 300.123 254.843 300.709 252.646 300.771 252.581 298.48 254.747 298.419 254.684 298.423 261.659 297.84ZM267.296 311.646 247.066 299.782 266.596 286.796C267.123 286.446 267.834 286.589 268.184 287.116 268.535 287.643 268.392 288.354 267.865 288.705L249.862 300.675 249.807 298.733 268.456 309.67C269.002 309.99 269.185 310.692 268.865 311.238 268.544 311.784 267.842 311.967 267.296 311.646Z" fill="#A6A6A6" transform="matrix(1 0 0 -1 3638 1622.78)"/><path d="M0.0134739-1.14575 9.17951-1.03796 9.15256 1.25355-0.0134739 1.14575ZM16.054-0.957119 20.2424-0.907865 25.2438-0.733552 25.164 1.55672 20.1758 1.38287 20.2022 1.38349 16.0271 1.33439ZM32.1146-0.494086 40.4447-0.203764 41.3006-0.154628 41.1693 2.13327 40.3262 2.08488 40.352 2.08606 32.0348 1.79619ZM48.1643 0.239367 57.3159 0.764694 57.1846 3.05259 48.033 2.52727ZM64.1994 1.24022 73.3372 1.96702 73.1555 4.25147 64.0177 3.52467ZM80.1905 2.51212 80.571 2.54238 89.3359 3.43099 89.1047 5.71097 80.3522 4.82361 80.3769 4.82585 80.0088 4.79657ZM96.1758 4.12444 100.416 4.55435 105.308 5.15638 105.028 7.43089 100.149 6.83035 100.173 6.83309 95.9447 6.40442ZM112.132 5.9961 120.064 6.97221 121.251 7.14397 120.923 9.41201 119.748 9.24199 119.772 9.24523 111.852 8.27061ZM128.055 8.12855 137.127 9.44133 136.799 11.7094 127.727 10.3966ZM143.94 10.5243 152.983 12.0293 152.607 14.2899 143.564 12.7849ZM159.784 13.1872 168.792 14.8844 168.368 17.1365 159.36 15.4392ZM175.548 16.1574 177.426 16.5111 184.55 18.0127 184.077 20.2551 176.965 18.756 176.989 18.7609 175.124 18.4094ZM191.277 19.4306 195.888 20.4025 200.25 21.4219 199.729 23.6534 195.379 22.6369 195.404 22.6424 190.805 21.673ZM206.945 22.9864 213.956 24.6249 215.885 25.1214 215.314 27.3407 213.398 26.8475 213.422 26.8536 206.423 25.2179ZM222.543 26.8349 231.421 29.1197 230.849 31.339 221.972 29.0543ZM238.064 30.989 246.887 33.477 246.265 35.6827 237.442 33.1946ZM253.496 35.4638 262.257 38.1612 261.583 40.3514 252.822 37.654ZM268.827 40.2781 277.519 43.1922 276.79 45.365 268.099 42.4509ZM284.042 45.4542 292.654 48.5944 291.869 50.7474 283.257 47.6072ZM299.12 51.0194 307.642 54.3969 306.798 56.5274 298.276 53.1499ZM314.038 57.007 322.456 60.6352 321.549 62.7397 313.131 59.1115ZM328.765 63.4571 337.063 67.3521 336.089 69.4266 327.791 65.5316ZM343.259 70.4191 351.417 74.5996 350.372 76.639 342.214 72.4585ZM357.468 77.9528 364.287 81.7816 365.473 82.5152 364.268 84.4643 363.102 83.7434 363.143 83.768 356.346 79.951ZM371.32 86.1312 375.422 88.6678 379.049 91.1547 377.753 93.0448 374.148 90.5732 374.194 90.6027 370.115 88.0803ZM384.719 95.0425 385.693 95.7098 392.078 100.608 390.684 102.426 384.322 97.5467 384.371 97.5826 383.423 96.9325ZM397.466 104.984 403.482 110.208 404.387 111.112 402.768 112.733 401.891 111.857 401.95 111.912 395.964 106.715ZM409.252 115.97 410.923 117.638 415.395 122.89 413.65 124.376 409.208 119.159 409.27 119.227 407.633 117.591ZM419.627 128.434 422.692 132.804 424.599 136.268 422.591 137.373 420.715 133.964 420.78 134.069 417.751 129.751ZM427.738 142.532 430.028 148.299 430.76 151.336 428.533 151.873 427.819 148.915 427.868 149.069 425.608 143.378ZM432.089 158.245 432.556 163.979 432.408 167.53 430.118 167.435 430.263 163.953 430.266 164.094 429.805 158.431ZM432.121 174.399 431.91 179.45 431.399 183.622 429.124 183.343 429.63 179.217 429.622 179.309 429.831 174.304ZM430.562 190.446 430.031 194.774 429.067 199.572 426.82 199.121 427.776 194.366 427.762 194.452 428.287 190.167ZM427.712 206.312 427 209.853 425.487 215.285 423.279 214.67 424.781 209.278 424.762 209.36 425.465 205.861ZM423.641 221.908 422.9 224.568 420.716 230.677 418.558 229.905 420.728 223.835 420.704 223.913 421.434 221.293ZM418.402 237.151 417.813 238.798 414.795 245.662 412.697 244.74 415.699 237.913 415.669 237.989 416.244 236.379ZM412.028 251.956 411.821 252.427 407.741 260.15 405.715 259.08 409.775 251.393 409.739 251.466 409.93 251.033ZM404.421 266.264 399.553 274.031 397.612 272.814 402.479 265.047ZM395.664 279.802 390.208 287.168 388.367 285.804 393.822 278.438ZM385.715 292.492 380.412 298.528 379.515 299.379 377.938 297.715 378.798 296.901 378.725 296.976 383.994 290.979ZM374.524 304.107 371.099 307.353 367.483 310.139 366.084 308.323 369.654 305.574 369.565 305.65 372.948 302.444ZM362.036 314.334 361.372 314.846 356.352 318.072 354.144 319.306 353.026 317.306 355.204 316.089 355.143 316.125 360.092 312.945 360.012 313.001 360.638 312.519ZM347.966 322.482 346.116 323.362 340.905 325.402 339.29 325.898 338.617 323.707 340.191 323.224 340.11 323.252 345.243 321.242 345.169 321.274 346.982 320.413ZM332.566 327.699 330.35 328.191 325.027 328.907 323.305 328.985 323.201 326.696 324.873 326.62 324.772 326.629 329.997 325.926 329.902 325.943 332.07 325.462ZM340.113 339.518 319.682 328.003 338.986 314.684C339.506 314.324 340.22 314.455 340.579 314.976 340.939 315.497 340.808 316.21 340.287 316.57L322.492 328.848 322.404 326.907 341.238 337.521C341.79 337.832 341.985 338.531 341.674 339.082 341.363 339.634 340.665 339.829 340.113 339.518Z" fill="#A6A6A6" transform="matrix(1 0 0 -1 3638 1623)"/><text font-family="Arial,Arial_MSFontService,sans-serif" font-weight="400" font-size="37" transform="matrix(1 0 0 1 3673.07 1579)">Mask Ratio2</text><path d="M2.29167-1.59144e-05 2.29179 18.3333-2.29154 18.3333-2.29167 1.59144e-05ZM2.29189 32.0833 2.29192 36.6666-2.29141 36.6667-2.29144 32.0834ZM9.1669 33.6351 0.000360892 51.9685-9.16643 33.6352Z" transform="matrix(1 0 0 -1 3301.5 890.468)"/><path d="M1.55772-0.726374 7.36871 11.7354 4.25327 13.1881-1.55772 0.726374ZM11.727 21.0817 13.1797 24.1971 10.0643 25.6498 8.61152 22.5344ZM17.5379 33.5434 19.0618 36.8114 15.9464 38.2641 14.4225 34.9962ZM23.8749 29.5098 23.3151 49.9995 7.25928 37.2578Z" transform="matrix(1 0 0 -1 3304.5 890.499)"/><path d="M3113.5 1716.83C3113.5 1711.13 3118.13 1706.5 3123.83 1706.5L3493.17 1706.5C3498.87 1706.5 3503.5 1711.13 3503.5 1716.83L3503.5 1758.17C3503.5 1763.87 3498.87 1768.5 3493.17 1768.5L3123.83 1768.5C3118.13 1768.5 3113.5 1763.87 3113.5 1758.17Z" stroke="#000000" stroke-width="4.58333" stroke-miterlimit="8" fill="#FEE99D" fill-rule="evenodd" fill-opacity="0.470588"/><text font-family="Arial,Arial_MSFontService,sans-serif" font-weight="700" font-size="41" transform="matrix(1 0 0 1 3165.13 1752)">Instance</text><text font-family="Arial,Arial_MSFontService,sans-serif" font-weight="700" font-size="41" transform="matrix(1 0 0 1 3343.88 1752)">Nor</text><text font-family="Arial,Arial_MSFontService,sans-serif" font-weight="700" font-size="41" transform="matrix(1 0 0 1 3414.92 1752)">m</text><path d="M2.29167-2.12191e-05 2.29184 18.3333-2.2915 18.3334-2.29167 2.12191e-05ZM9.16686 20.643 0.000360892 38.9764-9.16648 20.6431Z" transform="matrix(1 0 0 -1 3295.5 1807.48)"/></g></svg>