<svg width="2058" height="1206" xmlns="http://www.w3.org/2000/svg" xmlns:xlink="http://www.w3.org/1999/xlink" xml:space="preserve" overflow="hidden"><g transform="translate(-3327 -653)"><path d="M3427.5 1731.67C3427.5 1722.74 3434.74 1715.5 3443.67 1715.5L3567.33 1715.5C3576.26 1715.5 3583.5 1722.74 3583.5 1731.67L3583.5 1796.33C3583.5 1805.26 3576.26 1812.5 3567.33 1812.5L3443.67 1812.5C3434.74 1812.5 3427.5 1805.26 3427.5 1796.33Z" stroke="#000000" stroke-width="6.875" stroke-miterlimit="8" fill="#DEEBF7" fill-rule="evenodd"/><path d="M4051.5 679.667C4051.5 670.738 4058.74 663.5 4067.67 663.5L4191.33 663.5C4200.26 663.5 4207.5 670.738 4207.5 679.667L4207.5 744.333C4207.5 753.262 4200.26 760.5 4191.33 760.5L4067.67 760.5C4058.74 760.5 4051.5 753.262 4051.5 744.333Z" stroke="#000000" stroke-width="6.875" stroke-miterlimit="8" fill="#DEEBF7" fill-rule="evenodd"/><path d="M4051.5 1032.67C4051.5 1023.74 4058.74 1016.5 4067.67 1016.5L4191.33 1016.5C4200.26 1016.5 4207.5 1023.74 4207.5 1032.67L4207.5 1097.33C4207.5 1106.26 4200.26 1113.5 4191.33 1113.5L4067.67 1113.5C4058.74 1113.5 4051.5 1106.26 4051.5 1097.33Z" stroke="#000000" stroke-width="6.875" stroke-miterlimit="8" fill="#BAD7FF" fill-rule="evenodd"/><path d="M4051.5 1250.83C4051.5 1241.81 4058.81 1234.5 4067.83 1234.5L4191.17 1234.5C4200.19 1234.5 4207.5 1241.81 4207.5 1250.83L4207.5 1316.17C4207.5 1325.19 4200.19 1332.5 4191.17 1332.5L4067.83 1332.5C4058.81 1332.5 4051.5 1325.19 4051.5 1316.17Z" stroke="#000000" stroke-width="6.875" stroke-miterlimit="8" fill="#BAD7FF" fill-rule="evenodd"/><path d="M4051.5 885.833C4051.5 876.813 4058.81 869.5 4067.83 869.5L4191.17 869.5C4200.19 869.5 4207.5 876.813 4207.5 885.833L4207.5 951.166C4207.5 960.187 4200.19 967.5 4191.17 967.5L4067.83 967.5C4058.81 967.5 4051.5 960.187 4051.5 951.166Z" stroke="#000000" stroke-width="6.875" stroke-miterlimit="8" fill="#BAD7FF" fill-rule="evenodd"/><path d="M4487.5 679.667C4487.5 670.738 4494.74 663.5 4503.67 663.5L4627.33 663.5C4636.26 663.5 4643.5 670.738 4643.5 679.667L4643.5 744.333C4643.5 753.262 4636.26 760.5 4627.33 760.5L4503.67 760.5C4494.74 760.5 4487.5 753.262 4487.5 744.333Z" stroke="#000000" stroke-width="6.875" stroke-miterlimit="8" fill="#8FCCFF" fill-rule="evenodd"/><path d="M3961.5 937.336C3961.5 876.675 4010.67 827.5 4071.34 827.5L5163.66 827.5C5224.32 827.5 5273.5 876.675 5273.5 937.336L5273.5 1376.66C5273.5 1437.32 5224.32 1486.5 5163.66 1486.5L4071.34 1486.5C4010.67 1486.5 3961.5 1437.32 3961.5 1376.66Z" stroke="#172C51" stroke-width="4.58333" stroke-miterlimit="8" fill="none" fill-rule="evenodd"/><text font-family="Arial,Arial_MSFontService,sans-serif" font-weight="700" font-size="83" transform="matrix(1 0 0 1 4543.1 1442)">One</text><text font-family="Arial,Arial_MSFontService,sans-serif" font-weight="700" font-size="83" transform="matrix(1 0 0 1 4703.51 1442)">-</text><text font-family="Arial,Arial_MSFontService,sans-serif" font-weight="700" font-size="83" transform="matrix(1 0 0 1 4731.01 1442)">for</text><text font-family="Arial,Arial_MSFontService,sans-serif" font-weight="700" font-size="83" transform="matrix(1 0 0 1 4841.01 1442)">-</text><text font-family="Arial,Arial_MSFontService,sans-serif" font-weight="700" font-size="83" transform="matrix(1 0 0 1 4868.51 1442)">all</text><text font-family="Arial,Arial_MSFontService,sans-serif" font-weight="700" font-size="83" transform="matrix(1 0 0 1 4983.1 1442)">Model</text><g><g><g><path d="M5246.55 944.653 5224.66 932.018 5241.36 927.543C5242.88 927.132 5243.77 925.571 5243.36 924.057 5242.95 922.55 5241.4 921.656 5239.89 922.055L5217.7 928 5200.99 918.349 5219.97 907.391 5242.15 913.337C5242.4 913.401 5242.64 913.434 5242.89 913.434 5244.46 913.435 5245.73 912.163 5245.73 910.594 5245.73 909.307 5244.87 908.181 5243.63 907.849L5226.93 903.374 5246.55 892.046C5247.89 891.237 5248.32 889.491 5247.51 888.146 5246.73 886.836 5245.04 886.385 5243.7 887.125L5224.08 898.453 5228.56 881.753C5228.96 880.236 5228.06 878.682 5226.54 878.281 5225.03 877.882 5223.48 878.776 5223.07 880.283L5217.13 902.47 5198.15 913.428 5198.15 891.513 5214.39 875.27C5215.5 874.161 5215.5 872.362 5214.39 871.252 5213.28 870.143 5211.48 870.143 5210.37 871.252L5198.15 883.477 5198.15 860.822C5198.15 859.253 5196.87 857.981 5195.31 857.981 5193.74 857.981 5192.46 859.253 5192.46 860.822L5192.46 883.477 5180.24 871.252C5179.13 870.143 5177.33 870.143 5176.22 871.252 5175.11 872.362 5175.11 874.161 5176.22 875.27L5192.46 891.513 5192.46 913.429 5173.48 902.471 5167.54 880.283C5167.13 878.767 5165.58 877.868 5164.06 878.274 5162.54 878.68 5161.64 880.238 5162.05 881.754L5166.53 898.453 5146.91 887.126C5145.54 886.35 5143.81 886.827 5143.03 888.191 5142.26 889.542 5142.72 891.26 5144.06 892.046L5163.69 903.374 5146.98 907.849C5145.47 908.26 5144.58 909.821 5144.99 911.335 5145.4 912.842 5146.95 913.736 5148.46 913.337L5170.64 907.392 5189.62 918.349 5172.91 928.001 5150.72 922.055C5149.2 921.668 5147.65 922.586 5147.27 924.107 5146.88 925.601 5147.77 927.126 5149.25 927.543L5165.95 932.018 5144.07 944.653C5142.71 945.438 5142.24 947.176 5143.03 948.535 5143.53 949.414 5144.47 949.955 5145.49 949.955 5145.99 949.955 5146.48 949.823 5146.91 949.574L5168.79 936.939 5164.31 953.639C5163.91 955.156 5164.82 956.71 5166.34 957.111 5167.85 957.51 5169.39 956.616 5169.8 955.109L5175.75 932.921 5192.46 923.27 5192.46 942.571 5176.22 958.814C5175.11 959.924 5175.11 961.723 5176.22 962.832 5177.33 963.941 5179.13 963.941 5180.24 962.832L5192.46 950.607 5192.46 975.876C5192.46 977.445 5193.74 978.717 5195.3 978.717 5196.87 978.717 5198.15 977.445 5198.15 975.876L5198.15 950.607 5210.37 962.831C5211.48 963.941 5213.28 963.941 5214.39 962.832 5215.5 961.722 5215.5 959.923 5214.39 958.814L5198.15 942.571 5198.15 923.27 5214.86 932.921 5220.81 955.109C5221.21 956.624 5222.77 957.524 5224.29 957.118 5225.8 956.712 5226.7 955.154 5226.29 953.639L5221.82 936.939 5243.7 949.574C5245.06 950.358 5246.8 949.893 5247.58 948.535 5247.58 948.535 5247.58 948.534 5247.58 948.534 5248.37 947.176 5247.91 945.439 5246.55 944.654 5246.55 944.653 5246.55 944.653 5246.55 944.653Z" fill="#009FE8"/></g></g></g><path d="M3330.5 764.834C3330.5 755.813 3337.81 748.5 3346.83 748.5L3936.17 748.5C3945.19 748.5 3952.5 755.813 3952.5 764.834L3952.5 830.166C3952.5 839.187 3945.19 846.5 3936.17 846.5L3346.83 846.5C3337.81 846.5 3330.5 839.187 3330.5 830.166Z" stroke="#172C51" stroke-width="6.875" stroke-miterlimit="8" fill="#5C90C2" fill-rule="evenodd"/><text font-family="Arial,Arial_MSFontService,sans-serif" font-weight="700" font-size="50" transform="matrix(1 0 0 1 3372.35 815)">Domain</text><text font-family="Arial,Arial_MSFontService,sans-serif" font-weight="700" font-size="50" transform="matrix(1 0 0 1 3557.4 815)">-</text><text font-family="Arial,Arial_MSFontService,sans-serif" font-weight="700" font-size="50" transform="matrix(1 0 0 1 3574.01 815)">transfer Layer</text><g><g><g><path d="M23.9914 2.7C23.9914 2.7 40.2041 7.7434 36.6166 23.332 36.6166 23.332 38.4104 21.9566 40.2041 19.2056 40.2041 19.2056 48.276 25.6245 48.276 34.7943 48.276 41.2132 42.8947 46.715 32.1322 51.3L22.4737 51.3C13.3669 48.2625 5.778 42.2447 5.778 33.075 5.778 15.9395 22.7537 18.801 23.9914 2.7ZM27.2377 27C27.2377 27 19.6429 30.6884 18.167 37.5599 17.3748 41.2487 18.3459 45.8548 23.2017 51.3L30.8252 51.3C34.4127 46.1038 34.5621 41.8245 31.2736 38.4622 24.0986 31.5849 27.2377 27 27.2377 27Z" fill="#FF4900" transform="matrix(1.01852 0 0 1 3898 746)"/></g></g></g><text font-family="Arial,Arial_MSFontService,sans-serif" font-weight="700" font-size="55" transform="matrix(1 0 0 1 4347.93 1197)">…</text><text font-family="Arial,Arial_MSFontService,sans-serif" font-weight="700" font-size="55" transform="matrix(1 0 0 1 4105.81 1197)">…</text><text font-family="Arial,Arial_MSFontService,sans-serif" font-weight="700" font-size="55" transform="matrix(1 0 0 1 4542.22 1197)">…</text><text font-family="Arial,Arial_MSFontService,sans-serif" font-weight="700" font-size="55" transform="matrix(1 0 0 1 4735.33 1197)">…</text><text font-family="Arial,Arial_MSFontService,sans-serif" font-weight="700" font-size="55" transform="matrix(1 0 0 1 5002.24 1197)">…</text><path d="M0-2.29167 77.3898-2.29167 77.3898 386.335 72.8064 386.335 72.8064 0 75.0981 2.29167 0 2.29167ZM88.8481 381.752 75.0981 409.252 61.3481 381.752Z" transform="matrix(1.83697e-16 1 1 -1.83697e-16 3641.5 846.5)"/><path d="M0-2.29167 219.594-2.29167 219.594 386.775 215.01 386.775 215.01 0 217.302 2.29167 0 2.29167ZM231.052 382.192 217.302 409.692 203.552 382.192Z" transform="matrix(1.83697e-16 1 1 -1.83697e-16 3641.5 846.5)"/><path d="M0-2.29167 440.236-2.29167 440.236 386.775 435.653 386.775 435.653 0 437.944 2.29167 0 2.29167ZM451.694 382.192 437.944 409.692 424.194 382.192Z" transform="matrix(1.83697e-16 1 1 -1.83697e-16 3641.5 846.5)"/><path d="M4470.5 653.5 4470.5 1486.71" stroke="#000000" stroke-width="6.875" stroke-miterlimit="8" stroke-dasharray="27.5 20.625" fill="none" fill-rule="evenodd"/><path d="M4505.5 1560.83C4505.5 1551.81 4512.81 1544.5 4521.83 1544.5L5099.17 1544.5C5108.19 1544.5 5115.5 1551.81 5115.5 1560.83L5115.5 1626.17C5115.5 1635.19 5108.19 1642.5 5099.17 1642.5L4521.83 1642.5C4512.81 1642.5 4505.5 1635.19 4505.5 1626.17Z" stroke="#000000" stroke-width="6.875" stroke-miterlimit="8" fill="#FFFFFF" fill-rule="evenodd"/><text font-family="Arial,Arial_MSFontService,sans-serif" font-weight="700" font-size="50" transform="matrix(1 0 0 1 4653.45 1611)">Output Layer</text><g><g><g><path d="M5109.27 1590.83 5098.33 1584.51 5106.68 1582.27C5107.44 1582.07 5107.88 1581.29 5107.68 1580.53 5107.47 1579.78 5106.7 1579.33 5105.95 1579.53L5094.85 1582.5 5086.49 1577.67 5095.98 1572.2 5107.08 1575.17C5107.2 1575.2 5107.32 1575.22 5107.45 1575.22 5108.23 1575.22 5108.87 1574.58 5108.87 1573.8 5108.87 1573.15 5108.43 1572.59 5107.81 1572.42L5099.46 1570.19 5109.27 1564.52C5109.94 1564.12 5110.16 1563.25 5109.76 1562.57 5109.36 1561.92 5108.52 1561.69 5107.85 1562.06L5098.04 1567.73 5100.28 1559.38C5100.48 1558.62 5100.03 1557.84 5099.27 1557.64 5098.51 1557.44 5097.74 1557.89 5097.54 1558.64L5094.56 1569.74 5085.07 1575.21 5085.07 1564.26 5093.19 1556.14C5093.75 1555.58 5093.75 1554.68 5093.19 1554.13 5092.64 1553.57 5091.74 1553.57 5091.19 1554.13L5085.07 1560.24 5085.07 1548.91C5085.07 1548.13 5084.44 1547.49 5083.65 1547.49 5082.87 1547.49 5082.23 1548.13 5082.23 1548.91L5082.23 1560.24 5076.12 1554.13C5075.56 1553.57 5074.67 1553.57 5074.11 1554.13 5073.56 1554.68 5073.56 1555.58 5074.11 1556.14L5082.23 1564.26 5082.23 1575.21 5072.74 1569.74 5069.77 1558.64C5069.57 1557.88 5068.79 1557.43 5068.03 1557.64 5067.27 1557.84 5066.82 1558.62 5067.03 1559.38L5069.26 1567.73 5059.45 1562.06C5058.77 1561.68 5057.9 1561.91 5057.52 1562.6 5057.13 1563.27 5057.36 1564.13 5058.03 1564.52L5067.84 1570.19 5059.49 1572.42C5058.74 1572.63 5058.29 1573.41 5058.49 1574.17 5058.7 1574.92 5059.47 1575.37 5060.23 1575.17L5071.32 1572.2 5080.81 1577.67 5072.45 1582.5 5061.36 1579.53C5060.6 1579.33 5059.83 1579.79 5059.63 1580.55 5059.44 1581.3 5059.88 1582.06 5060.62 1582.27L5068.97 1584.51 5058.03 1590.83C5057.35 1591.22 5057.12 1592.09 5057.51 1592.77 5057.77 1593.21 5058.24 1593.48 5058.74 1593.48 5058.99 1593.48 5059.24 1593.41 5059.45 1593.29L5070.4 1586.97 5068.16 1595.32C5067.96 1596.08 5068.41 1596.86 5069.17 1597.06 5069.92 1597.26 5070.7 1596.81 5070.9 1596.05L5073.87 1584.96 5082.23 1580.14 5082.23 1589.79 5074.11 1597.91C5073.56 1598.46 5073.56 1599.36 5074.11 1599.92 5074.67 1600.47 5075.56 1600.47 5076.12 1599.92L5082.23 1593.8 5082.23 1606.44C5082.23 1607.22 5082.87 1607.86 5083.65 1607.86 5084.44 1607.86 5085.07 1607.22 5085.07 1606.44L5085.07 1593.8 5091.19 1599.92C5091.74 1600.47 5092.64 1600.47 5093.19 1599.92 5093.75 1599.36 5093.75 1598.46 5093.19 1597.91L5085.07 1589.79 5085.07 1580.14 5093.43 1584.96 5096.4 1596.05C5096.61 1596.81 5097.39 1597.26 5098.14 1597.06 5098.9 1596.86 5099.35 1596.08 5099.15 1595.32L5096.91 1586.97 5107.85 1593.29C5108.53 1593.68 5109.4 1593.45 5109.79 1592.77 5109.79 1592.77 5109.79 1592.77 5109.79 1592.77 5110.19 1592.09 5109.95 1591.22 5109.27 1590.83 5109.27 1590.83 5109.27 1590.83 5109.27 1590.83Z" fill="#009FE8"/></g></g></g><text font-family="Arial,Arial_MSFontService,sans-serif" font-weight="400" font-size="46" transform="matrix(1 0 0 1 3656.71 909)">Layer1 Prefix</text><text font-family="Arial,Arial_MSFontService,sans-serif" font-weight="400" font-size="46" transform="matrix(1 0 0 1 3656.7 1051)">Layer2 Prefix</text><text font-family="Arial,Arial_MSFontService,sans-serif" font-weight="400" font-size="46" transform="matrix(1 0 0 1 3652.41 1274)">LayerN</text><text font-family="Arial,Arial_MSFontService,sans-serif" font-weight="400" font-size="46" transform="matrix(1 0 0 1 3812.26 1274)">Prefix</text><path d="M4895.79 762.5 4895.79 784.046 4891.21 784.046 4891.21 762.5ZM4907.25 779.462 4893.5 806.963 4879.75 779.463Z"/><path d="M4838.79 1486.5 4838.79 1508.05 4834.21 1508.05 4834.21 1486.5ZM4850.25 1503.46 4836.5 1530.96 4822.75 1503.46Z"/><g><g><g><path d="M4203.27 707.827 4192.33 701.509 4200.68 699.272C4201.44 699.066 4201.88 698.286 4201.68 697.529 4201.47 696.775 4200.7 696.328 4199.95 696.527L4188.85 699.5 4180.49 694.675 4189.98 689.196 4201.08 692.168C4201.2 692.201 4201.32 692.217 4201.45 692.217 4202.23 692.217 4202.87 691.582 4202.87 690.797 4202.87 690.154 4202.43 689.59 4201.81 689.424L4193.46 687.187 4203.27 681.523C4203.94 681.118 4204.16 680.245 4203.76 679.573 4203.36 678.918 4202.52 678.693 4201.85 679.063L4192.04 684.726 4194.28 676.377C4194.48 675.618 4194.03 674.841 4193.27 674.64 4192.51 674.441 4191.74 674.888 4191.54 675.641L4188.56 686.735 4179.07 692.214 4179.07 681.257 4187.19 673.135C4187.75 672.58 4187.75 671.681 4187.19 671.126 4186.64 670.572 4185.74 670.572 4185.19 671.126L4179.07 677.239 4179.07 665.911C4179.07 665.127 4178.44 664.491 4177.65 664.491 4176.87 664.491 4176.23 665.127 4176.23 665.911L4176.23 677.239 4170.12 671.126C4169.56 670.572 4168.67 670.572 4168.11 671.126 4167.56 671.681 4167.56 672.58 4168.11 673.135L4176.23 681.257 4176.23 692.214 4166.74 686.736 4163.77 675.641C4163.57 674.884 4162.79 674.434 4162.03 674.637 4161.27 674.84 4160.82 675.619 4161.03 676.377L4163.26 684.727 4153.45 679.063C4152.77 678.675 4151.9 678.914 4151.52 679.596 4151.13 680.271 4151.36 681.13 4152.03 681.523L4161.84 687.187 4153.49 689.424C4152.74 689.63 4152.29 690.411 4152.49 691.168 4152.7 691.921 4153.47 692.368 4154.23 692.169L4165.32 689.196 4174.81 694.675 4166.45 699.5 4155.36 696.528C4154.6 696.334 4153.83 696.793 4153.63 697.553 4153.44 698.301 4153.88 699.063 4154.62 699.272L4162.97 701.509 4152.03 707.827C4151.35 708.219 4151.12 709.088 4151.51 709.767 4151.77 710.207 4152.24 710.478 4152.74 710.477 4152.99 710.477 4153.24 710.412 4153.45 710.287L4164.4 703.969 4162.16 712.319C4161.96 713.078 4162.41 713.855 4163.17 714.056 4163.92 714.255 4164.7 713.808 4164.9 713.055L4167.87 701.961 4176.23 697.135 4176.23 706.786 4168.11 714.907C4167.56 715.462 4167.56 716.361 4168.11 716.916 4168.67 717.471 4169.56 717.471 4170.12 716.916L4176.23 710.803 4176.23 723.438C4176.23 724.223 4176.87 724.859 4177.65 724.859 4178.44 724.859 4179.07 724.223 4179.07 723.438L4179.07 710.803 4185.19 716.916C4185.74 717.47 4186.64 717.471 4187.19 716.916 4187.75 716.361 4187.75 715.462 4187.19 714.907L4179.07 706.786 4179.07 697.135 4187.43 701.961 4190.4 713.055C4190.61 713.812 4191.39 714.262 4192.14 714.059 4192.9 713.856 4193.35 713.077 4193.15 712.319L4190.91 703.969 4201.85 710.287C4202.53 710.679 4203.4 710.447 4203.79 709.768 4203.79 709.767 4203.79 709.767 4203.79 709.767 4204.19 709.088 4203.95 708.219 4203.27 707.827 4203.27 707.827 4203.27 707.827 4203.27 707.827Z" fill="#009FE8"/></g></g></g><path d="M0-2.29167 411.983-2.29167 411.983 12.8369 407.4 12.8369 407.4 0 409.692 2.29167 0 2.29167ZM423.442 8.25361 409.692 35.7536 395.942 8.25361Z" transform="matrix(-1 1.22465e-16 1.22465e-16 1 4051.19 712.5)"/><text font-family="Arial,Arial_MSFontService,sans-serif" font-weight="700" font-size="55" transform="matrix(1 0 0 1 4870.41 737)">…</text><text font-family="Arial,Arial_MSFontService,sans-serif" font-weight="700" font-size="50" transform="matrix(1 0 0 1 4074.03 1084)">+</text><text font-family="Arial,Arial_MSFontService,sans-serif" font-weight="700" font-size="50" transform="matrix(1 0 0 1 4074.03 1306)">+</text><text font-family="Arial,Arial_MSFontService,sans-serif" font-weight="700" font-size="50" transform="matrix(1 0 0 1 4072.94 939)">+</text><g><g><g><path d="M3577.27 1759.83 3566.33 1753.51 3574.68 1751.27C3575.44 1751.07 3575.88 1750.29 3575.68 1749.53 3575.47 1748.77 3574.7 1748.33 3573.95 1748.53L3562.85 1751.5 3554.49 1746.67 3563.98 1741.2 3575.08 1744.17C3575.2 1744.2 3575.32 1744.22 3575.45 1744.22 3576.23 1744.22 3576.87 1743.58 3576.87 1742.8 3576.87 1742.15 3576.43 1741.59 3575.81 1741.42L3567.46 1739.19 3577.27 1733.52C3577.94 1733.12 3578.16 1732.25 3577.76 1731.57 3577.36 1730.92 3576.52 1730.69 3575.85 1731.06L3566.04 1736.73 3568.28 1728.38C3568.48 1727.62 3568.03 1726.84 3567.27 1726.64 3566.51 1726.44 3565.74 1726.89 3565.54 1727.64L3562.56 1738.73 3553.07 1744.21 3553.07 1733.26 3561.19 1725.13C3561.75 1724.58 3561.75 1723.68 3561.19 1723.13 3560.64 1722.57 3559.74 1722.57 3559.19 1723.13L3553.07 1729.24 3553.07 1717.91C3553.07 1717.13 3552.44 1716.49 3551.65 1716.49 3550.87 1716.49 3550.23 1717.13 3550.23 1717.91L3550.23 1729.24 3544.12 1723.13C3543.57 1722.57 3542.67 1722.57 3542.11 1723.13 3541.56 1723.68 3541.56 1724.58 3542.11 1725.13L3550.23 1733.26 3550.23 1744.21 3540.74 1738.74 3537.77 1727.64C3537.57 1726.88 3536.79 1726.43 3536.03 1726.64 3535.27 1726.84 3534.82 1727.62 3535.03 1728.38L3537.26 1736.73 3527.45 1731.06C3526.77 1730.67 3525.9 1730.91 3525.52 1731.6 3525.13 1732.27 3525.36 1733.13 3526.03 1733.52L3535.84 1739.19 3527.49 1741.42C3526.74 1741.63 3526.29 1742.41 3526.49 1743.17 3526.7 1743.92 3527.47 1744.37 3528.23 1744.17L3539.32 1741.2 3548.81 1746.67 3540.45 1751.5 3529.36 1748.53C3528.6 1748.33 3527.83 1748.79 3527.63 1749.55 3527.44 1750.3 3527.88 1751.06 3528.62 1751.27L3536.97 1753.51 3526.03 1759.83C3525.35 1760.22 3525.12 1761.09 3525.51 1761.77 3525.77 1762.21 3526.24 1762.48 3526.74 1762.48 3526.99 1762.48 3527.24 1762.41 3527.45 1762.29L3538.4 1755.97 3536.16 1764.32C3535.96 1765.08 3536.41 1765.86 3537.17 1766.06 3537.92 1766.25 3538.7 1765.81 3538.9 1765.05L3541.87 1753.96 3550.23 1749.13 3550.23 1758.79 3542.11 1766.91C3541.56 1767.46 3541.56 1768.36 3542.11 1768.92 3542.67 1769.47 3543.56 1769.47 3544.12 1768.92L3550.23 1762.8 3550.23 1775.44C3550.23 1776.22 3550.87 1776.86 3551.65 1776.86 3552.44 1776.86 3553.07 1776.22 3553.07 1775.44L3553.07 1762.8 3559.19 1768.92C3559.74 1769.47 3560.64 1769.47 3561.19 1768.92 3561.75 1768.36 3561.75 1767.46 3561.19 1766.91L3553.07 1758.79 3553.07 1749.13 3561.43 1753.96 3564.4 1765.05C3564.61 1765.81 3565.39 1766.26 3566.14 1766.06 3566.9 1765.86 3567.35 1765.08 3567.15 1764.32L3564.91 1755.97 3575.85 1762.29C3576.53 1762.68 3577.4 1762.45 3577.79 1761.77 3577.79 1761.77 3577.79 1761.77 3577.79 1761.77 3578.19 1761.09 3577.95 1760.22 3577.27 1759.83 3577.27 1759.83 3577.27 1759.83 3577.27 1759.83Z" fill="#009FE8"/></g></g></g><text font-family="Arial,Arial_MSFontService,sans-serif" font-weight="400" font-size="50" transform="matrix(1 0 0 1 3620.94 1756)">Frozen Domain</text><text font-family="Arial,Arial_MSFontService,sans-serif" font-weight="400" font-size="50" transform="matrix(1 0 0 1 3965.83 1756)">-</text><text font-family="Arial,Arial_MSFontService,sans-serif" font-weight="400" font-size="50" transform="matrix(1 0 0 1 3620.94 1817)">Specific Embedding</text><text font-family="Arial,Arial_MSFontService,sans-serif" font-weight="400" font-size="50" transform="matrix(1 0 0 1 4283.72 1756)">Transferred prefix </text><text font-family="Arial,Arial_MSFontService,sans-serif" font-weight="400" font-size="50" transform="matrix(1 0 0 1 4283.72 1817)">key&amp;value</text><text font-family="Arial,Arial_MSFontService,sans-serif" font-weight="400" font-size="50" transform="matrix(1 0 0 1 4927 1756)">Random initialized </text><text font-family="Arial,Arial_MSFontService,sans-serif" font-weight="400" font-size="50" transform="matrix(1 0 0 1 4927 1817)">prefix </text><text font-family="Arial,Arial_MSFontService,sans-serif" font-weight="400" font-size="50" transform="matrix(1 0 0 1 5063.92 1817)">key&amp;value</text><path d="M4294.5 679.667C4294.5 670.738 4301.74 663.5 4310.67 663.5L4434.33 663.5C4443.26 663.5 4450.5 670.738 4450.5 679.667L4450.5 744.333C4450.5 753.262 4443.26 760.5 4434.33 760.5L4310.67 760.5C4301.74 760.5 4294.5 753.262 4294.5 744.333Z" stroke="#000000" stroke-width="6.875" stroke-miterlimit="8" fill="#B2DE84" fill-rule="evenodd"/><path d="M4680.5 679.667C4680.5 670.738 4687.74 663.5 4696.67 663.5L4820.33 663.5C4829.26 663.5 4836.5 670.738 4836.5 679.667L4836.5 744.333C4836.5 753.262 4829.26 760.5 4820.33 760.5L4696.67 760.5C4687.74 760.5 4680.5 753.262 4680.5 744.333Z" stroke="#000000" stroke-width="6.875" stroke-miterlimit="8" fill="#8FCCFF" fill-rule="evenodd"/><path d="M4951.5 679.667C4951.5 670.738 4958.74 663.5 4967.67 663.5L5091.33 663.5C5100.26 663.5 5107.5 670.738 5107.5 679.667L5107.5 744.333C5107.5 753.262 5100.26 760.5 5091.33 760.5L4967.67 760.5C4958.74 760.5 4951.5 753.262 4951.5 744.333Z" stroke="#000000" stroke-width="6.875" stroke-miterlimit="8" fill="#8FCCFF" fill-rule="evenodd"/><path d="M4487.5 888.667C4487.5 879.738 4494.74 872.5 4503.67 872.5L4627.33 872.5C4636.26 872.5 4643.5 879.738 4643.5 888.667L4643.5 953.333C4643.5 962.262 4636.26 969.5 4627.33 969.5L4503.67 969.5C4494.74 969.5 4487.5 962.262 4487.5 953.333Z" stroke="#000000" stroke-width="6.875" stroke-miterlimit="8" fill="#8FCCFF" fill-rule="evenodd"/><path d="M4680.5 888.667C4680.5 879.738 4687.74 872.5 4696.67 872.5L4820.33 872.5C4829.26 872.5 4836.5 879.738 4836.5 888.667L4836.5 953.333C4836.5 962.262 4829.26 969.5 4820.33 969.5L4696.67 969.5C4687.74 969.5 4680.5 962.262 4680.5 953.333Z" stroke="#000000" stroke-width="6.875" stroke-miterlimit="8" fill="#8FCCFF" fill-rule="evenodd"/><path d="M4951.5 888.667C4951.5 879.738 4958.74 872.5 4967.67 872.5L5091.33 872.5C5100.26 872.5 5107.5 879.738 5107.5 888.667L5107.5 953.333C5107.5 962.262 5100.26 969.5 5091.33 969.5L4967.67 969.5C4958.74 969.5 4951.5 962.262 4951.5 953.333Z" stroke="#000000" stroke-width="6.875" stroke-miterlimit="8" fill="#8FCCFF" fill-rule="evenodd"/><path d="M4487.5 1030.83C4487.5 1021.81 4494.81 1014.5 4503.83 1014.5L4627.17 1014.5C4636.19 1014.5 4643.5 1021.81 4643.5 1030.83L4643.5 1096.17C4643.5 1105.19 4636.19 1112.5 4627.17 1112.5L4503.83 1112.5C4494.81 1112.5 4487.5 1105.19 4487.5 1096.17Z" stroke="#000000" stroke-width="6.875" stroke-miterlimit="8" fill="#8FCCFF" fill-rule="evenodd"/><path d="M4680.5 1030.83C4680.5 1021.81 4687.81 1014.5 4696.83 1014.5L4820.17 1014.5C4829.19 1014.5 4836.5 1021.81 4836.5 1030.83L4836.5 1096.17C4836.5 1105.19 4829.19 1112.5 4820.17 1112.5L4696.83 1112.5C4687.81 1112.5 4680.5 1105.19 4680.5 1096.17Z" stroke="#000000" stroke-width="6.875" stroke-miterlimit="8" fill="#8FCCFF" fill-rule="evenodd"/><path d="M4951.5 1030.83C4951.5 1021.81 4958.81 1014.5 4967.83 1014.5L5091.17 1014.5C5100.19 1014.5 5107.5 1021.81 5107.5 1030.83L5107.5 1096.17C5107.5 1105.19 5100.19 1112.5 5091.17 1112.5L4967.83 1112.5C4958.81 1112.5 4951.5 1105.19 4951.5 1096.17Z" stroke="#000000" stroke-width="6.875" stroke-miterlimit="8" fill="#8FCCFF" fill-rule="evenodd"/><path d="M4487.5 1252.83C4487.5 1243.81 4494.81 1236.5 4503.83 1236.5L4627.17 1236.5C4636.19 1236.5 4643.5 1243.81 4643.5 1252.83L4643.5 1318.17C4643.5 1327.19 4636.19 1334.5 4627.17 1334.5L4503.83 1334.5C4494.81 1334.5 4487.5 1327.19 4487.5 1318.17Z" stroke="#000000" stroke-width="6.875" stroke-miterlimit="8" fill="#8FCCFF" fill-rule="evenodd"/><path d="M4680.5 1252.83C4680.5 1243.81 4687.81 1236.5 4696.83 1236.5L4820.17 1236.5C4829.19 1236.5 4836.5 1243.81 4836.5 1252.83L4836.5 1318.17C4836.5 1327.19 4829.19 1334.5 4820.17 1334.5L4696.83 1334.5C4687.81 1334.5 4680.5 1327.19 4680.5 1318.17Z" stroke="#000000" stroke-width="6.875" stroke-miterlimit="8" fill="#8FCCFF" fill-rule="evenodd"/><path d="M4951.5 1252.83C4951.5 1243.81 4958.81 1236.5 4967.83 1236.5L5091.17 1236.5C5100.19 1236.5 5107.5 1243.81 5107.5 1252.83L5107.5 1318.17C5107.5 1327.19 5100.19 1334.5 5091.17 1334.5L4967.83 1334.5C4958.81 1334.5 4951.5 1327.19 4951.5 1318.17Z" stroke="#000000" stroke-width="6.875" stroke-miterlimit="8" fill="#8FCCFF" fill-rule="evenodd"/><path d="M4294.5 885.667C4294.5 876.738 4301.74 869.5 4310.67 869.5L4434.33 869.5C4443.26 869.5 4450.5 876.738 4450.5 885.667L4450.5 950.333C4450.5 959.262 4443.26 966.5 4434.33 966.5L4310.67 966.5C4301.74 966.5 4294.5 959.262 4294.5 950.333Z" stroke="#000000" stroke-width="6.875" stroke-miterlimit="8" fill="#B2DE84" fill-rule="evenodd"/><path d="M4294.5 1030.67C4294.5 1021.74 4301.74 1014.5 4310.67 1014.5L4434.33 1014.5C4443.26 1014.5 4450.5 1021.74 4450.5 1030.67L4450.5 1095.33C4450.5 1104.26 4443.26 1111.5 4434.33 1111.5L4310.67 1111.5C4301.74 1111.5 4294.5 1104.26 4294.5 1095.33Z" stroke="#000000" stroke-width="6.875" stroke-miterlimit="8" fill="#B2DE84" fill-rule="evenodd"/><path d="M4294.5 1250.83C4294.5 1241.81 4301.81 1234.5 4310.83 1234.5L4434.17 1234.5C4443.19 1234.5 4450.5 1241.81 4450.5 1250.83L4450.5 1316.17C4450.5 1325.19 4443.19 1332.5 4434.17 1332.5L4310.83 1332.5C4301.81 1332.5 4294.5 1325.19 4294.5 1316.17Z" stroke="#000000" stroke-width="6.875" stroke-miterlimit="8" fill="#B2DE84" fill-rule="evenodd"/><path d="M4116.5 905.667C4116.5 896.738 4123.74 889.5 4132.67 889.5L4256.33 889.5C4265.26 889.5 4272.5 896.738 4272.5 905.667L4272.5 970.333C4272.5 979.262 4265.26 986.5 4256.33 986.5L4132.67 986.5C4123.74 986.5 4116.5 979.262 4116.5 970.333Z" stroke="#000000" stroke-width="6.875" stroke-miterlimit="8" fill="#FFE8CC" fill-rule="evenodd"/><g><g><g><path d="M4241.88 890.25C4241.88 890.25 4261.39 896.321 4257.08 915.085 4257.08 915.085 4259.23 913.429 4261.39 910.118 4261.39 910.118 4271.11 917.844 4271.11 928.882 4271.11 936.608 4264.63 943.231 4251.68 948.75L4240.05 948.75C4229.09 945.094 4219.96 937.85 4219.96 926.812 4219.96 906.186 4240.39 909.631 4241.88 890.25ZM4245.79 919.5C4245.79 919.5 4236.64 923.94 4234.87 932.211 4233.91 936.651 4235.08 942.195 4240.93 948.75L4250.1 948.75C4254.42 942.495 4254.6 937.344 4250.64 933.297 4242.01 925.019 4245.79 919.5 4245.79 919.5Z" fill="#FF4900"/></g></g></g><path d="M4116.5 1050.83C4116.5 1041.81 4123.81 1034.5 4132.83 1034.5L4256.17 1034.5C4265.19 1034.5 4272.5 1041.81 4272.5 1050.83L4272.5 1116.17C4272.5 1125.19 4265.19 1132.5 4256.17 1132.5L4132.83 1132.5C4123.81 1132.5 4116.5 1125.19 4116.5 1116.17Z" stroke="#000000" stroke-width="6.875" stroke-miterlimit="8" fill="#FFE8CC" fill-rule="evenodd"/><g><g><g><path d="M4241.88 1036.25C4241.88 1036.25 4261.39 1042.32 4257.08 1061.08 4257.08 1061.08 4259.23 1059.43 4261.39 1056.12 4261.39 1056.12 4271.11 1063.84 4271.11 1074.88 4271.11 1082.61 4264.63 1089.23 4251.68 1094.75L4240.05 1094.75C4229.09 1091.09 4219.96 1083.85 4219.96 1072.81 4219.96 1052.19 4240.39 1055.63 4241.88 1036.25ZM4245.79 1065.5C4245.79 1065.5 4236.64 1069.94 4234.87 1078.21 4233.91 1082.65 4235.08 1088.2 4240.93 1094.75L4250.1 1094.75C4254.42 1088.5 4254.6 1083.34 4250.64 1079.3 4242.01 1071.02 4245.79 1065.5 4245.79 1065.5Z" fill="#FF4900"/></g></g></g><path d="M4116.5 1269.67C4116.5 1260.74 4123.74 1253.5 4132.67 1253.5L4256.33 1253.5C4265.26 1253.5 4272.5 1260.74 4272.5 1269.67L4272.5 1334.33C4272.5 1343.26 4265.26 1350.5 4256.33 1350.5L4132.67 1350.5C4123.74 1350.5 4116.5 1343.26 4116.5 1334.33Z" stroke="#000000" stroke-width="6.875" stroke-miterlimit="8" fill="#FFE8CC" fill-rule="evenodd"/><g><g><g><path d="M4241.88 1254.25C4241.88 1254.25 4261.39 1260.32 4257.08 1279.08 4257.08 1279.08 4259.23 1277.43 4261.39 1274.12 4261.39 1274.12 4271.11 1281.84 4271.11 1292.88 4271.11 1300.61 4264.63 1307.23 4251.68 1312.75L4240.05 1312.75C4229.09 1309.09 4219.96 1301.85 4219.96 1290.81 4219.96 1270.19 4240.39 1273.63 4241.88 1254.25ZM4245.79 1283.5C4245.79 1283.5 4236.64 1287.94 4234.87 1296.21 4233.91 1300.65 4235.08 1306.2 4240.93 1312.75L4250.1 1312.75C4254.42 1306.5 4254.6 1301.34 4250.64 1297.3 4242.01 1289.02 4245.79 1283.5 4245.79 1283.5Z" fill="#FF4900"/></g></g></g><path d="M4086.5 1731.67C4086.5 1722.74 4093.74 1715.5 4102.67 1715.5L4226.33 1715.5C4235.26 1715.5 4242.5 1722.74 4242.5 1731.67L4242.5 1796.33C4242.5 1805.26 4235.26 1812.5 4226.33 1812.5L4102.67 1812.5C4093.74 1812.5 4086.5 1805.26 4086.5 1796.33Z" stroke="#000000" stroke-width="6.875" stroke-miterlimit="8" fill="#BAD7FF" fill-rule="evenodd"/><path d="M4732.5 1731.67C4732.5 1722.74 4739.74 1715.5 4748.67 1715.5L4862.33 1715.5C4871.26 1715.5 4878.5 1722.74 4878.5 1731.67L4878.5 1796.33C4878.5 1805.26 4871.26 1812.5 4862.33 1812.5L4748.67 1812.5C4739.74 1812.5 4732.5 1805.26 4732.5 1796.33Z" stroke="#000000" stroke-width="6.875" stroke-miterlimit="8" fill="#FFE8CC" fill-rule="evenodd"/><g><g><g><path d="M4845.88 1716.25C4845.88 1716.25 4865.39 1722.32 4861.08 1741.08 4861.08 1741.08 4863.23 1739.43 4865.39 1736.12 4865.39 1736.12 4875.11 1743.84 4875.11 1754.88 4875.11 1762.61 4868.63 1769.23 4855.68 1774.75L4844.05 1774.75C4833.09 1771.09 4823.96 1763.85 4823.96 1752.81 4823.96 1732.19 4844.39 1735.63 4845.88 1716.25ZM4849.79 1745.5C4849.79 1745.5 4840.64 1749.94 4838.87 1758.21 4837.91 1762.65 4839.08 1768.2 4844.93 1774.75L4854.1 1774.75C4858.42 1768.5 4858.6 1763.34 4854.64 1759.3 4846.01 1751.02 4849.79 1745.5 4849.79 1745.5Z" fill="#FF4900"/></g></g></g></g></svg>